<svg id="my-svg" width="100%" xmlns="http://www.w3.org/2000/svg" xmlns:xlink="http://www.w3.org/1999/xlink" class="classDiagram" style="max-width: 976.898px; background-color: transparent;" viewBox="0 0 976.8984375 1222" role="graphics-document document" aria-roledescription="class"><style>#my-svg{font-family:"trebuchet ms",verdana,arial,sans-serif;font-size:16px;fill:#333;}@keyframes edge-animation-frame{from{stroke-dashoffset:0;}}@keyframes dash{to{stroke-dashoffset:0;}}#my-svg .edge-animation-slow{stroke-dasharray:9,5!important;stroke-dashoffset:900;animation:dash 50s linear infinite;stroke-linecap:round;}#my-svg .edge-animation-fast{stroke-dasharray:9,5!important;stroke-dashoffset:900;animation:dash 20s linear infinite;stroke-linecap:round;}#my-svg .error-icon{fill:#552222;}#my-svg .error-text{fill:#552222;stroke:#552222;}#my-svg .edge-thickness-normal{stroke-width:1px;}#my-svg .edge-thickness-thick{stroke-width:3.5px;}#my-svg .edge-pattern-solid{stroke-dasharray:0;}#my-svg .edge-thickness-invisible{stroke-width:0;fill:none;}#my-svg .edge-pattern-dashed{stroke-dasharray:3;}#my-svg .edge-pattern-dotted{stroke-dasharray:2;}#my-svg .marker{fill:#333333;stroke:#333333;}#my-svg .marker.cross{stroke:#333333;}#my-svg svg{font-family:"trebuchet ms",verdana,arial,sans-serif;font-size:16px;}#my-svg p{margin:0;}#my-svg g.classGroup text{fill:#9370DB;stroke:none;font-family:"trebuchet ms",verdana,arial,sans-serif;font-size:10px;}#my-svg g.classGroup text .title{font-weight:bolder;}#my-svg .nodeLabel,#my-svg .edgeLabel{color:#131300;}#my-svg .edgeLabel .label rect{fill:#ECECFF;}#my-svg .label text{fill:#131300;}#my-svg .labelBkg{background:#ECECFF;}#my-svg .edgeLabel .label span{background:#ECECFF;}#my-svg .classTitle{font-weight:bolder;}#my-svg .node rect,#my-svg .node circle,#my-svg .node ellipse,#my-svg .node polygon,#my-svg .node path{fill:#ECECFF;stroke:#9370DB;stroke-width:1px;}#my-svg .divider{stroke:#9370DB;stroke-width:1;}#my-svg g.clickable{cursor:pointer;}#my-svg g.classGroup rect{fill:#ECECFF;stroke:#9370DB;}#my-svg g.classGroup line{stroke:#9370DB;stroke-width:1;}#my-svg .classLabel .box{stroke:none;stroke-width:0;fill:#ECECFF;opacity:0.5;}#my-svg .classLabel .label{fill:#9370DB;font-size:10px;}#my-svg .relation{stroke:#333333;stroke-width:1;fill:none;}#my-svg .dashed-line{stroke-dasharray:3;}#my-svg .dotted-line{stroke-dasharray:1 2;}#my-svg #compositionStart,#my-svg .composition{fill:#333333!important;stroke:#333333!important;stroke-width:1;}#my-svg #compositionEnd,#my-svg .composition{fill:#333333!important;stroke:#333333!important;stroke-width:1;}#my-svg #dependencyStart,#my-svg .dependency{fill:#333333!important;stroke:#333333!important;stroke-width:1;}#my-svg #dependencyStart,#my-svg .dependency{fill:#333333!important;stroke:#333333!important;stroke-width:1;}#my-svg #extensionStart,#my-svg .extension{fill:transparent!important;stroke:#333333!important;stroke-width:1;}#my-svg #extensionEnd,#my-svg .extension{fill:transparent!important;stroke:#333333!important;stroke-width:1;}#my-svg #aggregationStart,#my-svg .aggregation{fill:transparent!important;stroke:#333333!important;stroke-width:1;}#my-svg #aggregationEnd,#my-svg .aggregation{fill:transparent!important;stroke:#333333!important;stroke-width:1;}#my-svg #lollipopStart,#my-svg .lollipop{fill:#ECECFF!important;stroke:#333333!important;stroke-width:1;}#my-svg #lollipopEnd,#my-svg .lollipop{fill:#ECECFF!important;stroke:#333333!important;stroke-width:1;}#my-svg .edgeTerminals{font-size:11px;line-height:initial;}#my-svg .classTitleText{text-anchor:middle;font-size:18px;fill:#333;}#my-svg .label-icon{display:inline-block;height:1em;overflow:visible;vertical-align:-0.125em;}#my-svg .node .label-icon path{fill:currentColor;stroke:revert;stroke-width:revert;}#my-svg :root{--mermaid-font-family:"trebuchet ms",verdana,arial,sans-serif;}</style><g><defs><marker id="my-svg_class-aggregationStart" class="marker aggregation class" refX="18" refY="7" markerWidth="190" markerHeight="240" orient="auto"><path d="M 18,7 L9,13 L1,7 L9,1 Z"/></marker></defs><defs><marker id="my-svg_class-aggregationEnd" class="marker aggregation class" refX="1" refY="7" markerWidth="20" markerHeight="28" orient="auto"><path d="M 18,7 L9,13 L1,7 L9,1 Z"/></marker></defs><defs><marker id="my-svg_class-extensionStart" class="marker extension class" refX="18" refY="7" markerWidth="190" markerHeight="240" orient="auto"><path d="M 1,7 L18,13 V 1 Z"/></marker></defs><defs><marker id="my-svg_class-extensionEnd" class="marker extension class" refX="1" refY="7" markerWidth="20" markerHeight="28" orient="auto"><path d="M 1,1 V 13 L18,7 Z"/></marker></defs><defs><marker id="my-svg_class-compositionStart" class="marker composition class" refX="18" refY="7" markerWidth="190" markerHeight="240" orient="auto"><path d="M 18,7 L9,13 L1,7 L9,1 Z"/></marker></defs><defs><marker id="my-svg_class-compositionEnd" class="marker composition class" refX="1" refY="7" markerWidth="20" markerHeight="28" orient="auto"><path d="M 18,7 L9,13 L1,7 L9,1 Z"/></marker></defs><defs><marker id="my-svg_class-dependencyStart" class="marker dependency class" refX="6" refY="7" markerWidth="190" markerHeight="240" orient="auto"><path d="M 5,7 L9,13 L1,7 L9,1 Z"/></marker></defs><defs><marker id="my-svg_class-dependencyEnd" class="marker dependency class" refX="13" refY="7" markerWidth="20" markerHeight="28" orient="auto"><path d="M 18,7 L9,13 L14,7 L9,1 Z"/></marker></defs><defs><marker id="my-svg_class-lollipopStart" class="marker lollipop class" refX="13" refY="7" markerWidth="190" markerHeight="240" orient="auto"><circle stroke="black" fill="transparent" cx="7" cy="7" r="6"/></marker></defs><defs><marker id="my-svg_class-lollipopEnd" class="marker lollipop class" refX="1" refY="7" markerWidth="190" markerHeight="240" orient="auto"><circle stroke="black" fill="transparent" cx="7" cy="7" r="6"/></marker></defs><g class="root"><g class="clusters"/><g class="edgePaths"><path d="M260.461,261.024L235.773,275.02C211.086,289.016,161.711,317.008,137.023,340.671C112.336,364.333,112.336,383.667,112.336,393.333L112.336,403" id="id_Experiment_ExperimentZipFile_1" class="edge-thickness-normal edge-pattern-solid relation" style=";;;" data-edge="true" data-et="edge" data-id="id_Experiment_ExperimentZipFile_1" data-points="W3sieCI6Mjc1LjQ2Njc5Njg3NSwieSI6MjUyLjUxNjMwMDMyNDg0NDE3fSx7IngiOjExMi4zMzU5Mzc1LCJ5IjozNDV9LHsieCI6MTEyLjMzNTkzNzUsInkiOjQwM31d" marker-start="url(#my-svg_class-extensionStart)"/><path d="M368.202,336.188L367.661,337.656C367.12,339.125,366.039,342.063,365.498,355.198C364.957,368.333,364.957,391.667,364.957,403.333L364.957,415" id="id_Experiment_webExperiment_2" class="edge-thickness-normal edge-pattern-solid relation" style=";;;" data-edge="true" data-et="edge" data-id="id_Experiment_webExperiment_2" data-points="W3sieCI6Mzc0LjE2MTgwNzIzNDExNiwieSI6MzIwfSx7IngiOjM2NC45NTcwMzEyNSwieSI6MzQ1fSx7IngiOjM2NC45NTcwMzEyNSwieSI6NDE1fV0=" marker-start="url(#my-svg_class-extensionStart)"/><path d="M587.732,234.985L628.062,253.321C668.392,271.657,749.051,308.328,789.381,329.831C829.711,351.333,829.711,357.667,829.711,360.833L829.711,364" id="id_Experiment_TrialSet_3" class="edge-thickness-normal edge-pattern-solid relation" style=";;;" data-edge="true" data-et="edge" data-id="id_Experiment_TrialSet_3" data-points="W3sieCI6NTg3LjczMjQyMTg3NSwieSI6MjM0Ljk4NTI2NzM1MTIxMzk2fSx7IngiOjgyOS43MTA5Mzc1LCJ5IjozNDV9LHsieCI6ODI5LjcxMDkzNzUsInkiOjM3MH1d" marker-end="url(#my-svg_class-dependencyEnd)"/><path d="M489.037,320L490.572,324.167C492.106,328.333,495.174,336.667,496.708,363C498.242,389.333,498.242,433.667,498.242,478C498.242,522.333,498.242,566.667,498.242,594C498.242,621.333,498.242,631.667,498.242,636.833L498.242,642" id="id_Experiment_EntityType_4" class="edge-thickness-normal edge-pattern-solid relation" style=";;;" data-edge="true" data-et="edge" data-id="id_Experiment_EntityType_4" data-points="W3sieCI6NDg5LjAzNzQxMTUxNTg4NCwieSI6MzIwfSx7IngiOjQ5OC4yNDIxODc1LCJ5IjozNDV9LHsieCI6NDk4LjI0MjE4NzUsInkiOjQ3OH0seyJ4Ijo0OTguMjQyMTg3NSwieSI6NjExfSx7IngiOjQ5OC4yNDIxODc1LCJ5Ijo2NDh9XQ==" marker-end="url(#my-svg_class-dependencyEnd)"/><path d="M829.711,586L829.711,590.167C829.711,594.333,829.711,602.667,829.711,610C829.711,617.333,829.711,623.667,829.711,626.833L829.711,630" id="id_TrialSet_Trial_5" class="edge-thickness-normal edge-pattern-solid relation" style=";;;" data-edge="true" data-et="edge" data-id="id_TrialSet_Trial_5" data-points="W3sieCI6ODI5LjcxMDkzNzUsInkiOjU4Nn0seyJ4Ijo4MjkuNzEwOTM3NSwieSI6NjExfSx7IngiOjgyOS43MTA5Mzc1LCJ5Ijo2MzZ9XQ==" marker-end="url(#my-svg_class-dependencyEnd)"/><path d="M498.242,864L498.242,872.167C498.242,880.333,498.242,896.667,503.59,910.286C508.937,923.905,519.632,934.811,524.979,940.263L530.326,945.716" id="id_EntityType_Entity_6" class="edge-thickness-normal edge-pattern-solid relation" style=";;;" data-edge="true" data-et="edge" data-id="id_EntityType_Entity_6" data-points="W3sieCI6NDk4LjI0MjE4NzUsInkiOjg2NH0seyJ4Ijo0OTguMjQyMTg3NSwieSI6OTEzfSx7IngiOjUzNC41MjcyMjgxODA0NzMzLCJ5Ijo5NTB9XQ==" marker-end="url(#my-svg_class-dependencyEnd)"/><path d="M829.711,876L829.711,882.167C829.711,888.333,829.711,900.667,824.364,912.286C819.016,923.905,808.322,934.811,802.974,940.263L797.627,945.716" id="id_Trial_Entity_7" class="edge-thickness-normal edge-pattern-solid relation" style=";;;" data-edge="true" data-et="edge" data-id="id_Trial_Entity_7" data-points="W3sieCI6ODI5LjcxMDkzNzUsInkiOjg3Nn0seyJ4Ijo4MjkuNzEwOTM3NSwieSI6OTEzfSx7IngiOjc5My40MjU4OTY4MTk1MjY3LCJ5Ijo5NTB9XQ==" marker-end="url(#my-svg_class-dependencyEnd)"/></g><g class="edgeLabels"><g class="edgeLabel"><g class="label" data-id="id_Experiment_ExperimentZipFile_1" transform="translate(0, 0)"><foreignObject width="0" height="0"><div xmlns="http://www.w3.org/1999/xhtml" class="labelBkg" style="display: table-cell; white-space: nowrap; line-height: 1.5; max-width: 200px; text-align: center;"><span class="edgeLabel"></span></div></foreignObject></g></g><g class="edgeLabel"><g class="label" data-id="id_Experiment_webExperiment_2" transform="translate(0, 0)"><foreignObject width="0" height="0"><div xmlns="http://www.w3.org/1999/xhtml" class="labelBkg" style="display: table-cell; white-space: nowrap; line-height: 1.5; max-width: 200px; text-align: center;"><span class="edgeLabel"></span></div></foreignObject></g></g><g class="edgeLabel"><g class="label" data-id="id_Experiment_TrialSet_3" transform="translate(0, 0)"><foreignObject width="0" height="0"><div xmlns="http://www.w3.org/1999/xhtml" class="labelBkg" style="display: table-cell; white-space: nowrap; line-height: 1.5; max-width: 200px; text-align: center;"><span class="edgeLabel"></span></div></foreignObject></g></g><g class="edgeLabel"><g class="label" data-id="id_Experiment_EntityType_4" transform="translate(0, 0)"><foreignObject width="0" height="0"><div xmlns="http://www.w3.org/1999/xhtml" class="labelBkg" style="display: table-cell; white-space: nowrap; line-height: 1.5; max-width: 200px; text-align: center;"><span class="edgeLabel"></span></div></foreignObject></g></g><g class="edgeLabel"><g class="label" data-id="id_TrialSet_Trial_5" transform="translate(0, 0)"><foreignObject width="0" height="0"><div xmlns="http://www.w3.org/1999/xhtml" class="labelBkg" style="display: table-cell; white-space: nowrap; line-height: 1.5; max-width: 200px; text-align: center;"><span class="edgeLabel"></span></div></foreignObject></g></g><g class="edgeLabel"><g class="label" data-id="id_EntityType_Entity_6" transform="translate(0, 0)"><foreignObject width="0" height="0"><div xmlns="http://www.w3.org/1999/xhtml" class="labelBkg" style="display: table-cell; white-space: nowrap; line-height: 1.5; max-width: 200px; text-align: center;"><span class="edgeLabel"></span></div></foreignObject></g></g><g class="edgeLabel" transform="translate(829.7109375, 913)"><g class="label" data-id="id_Trial_Entity_7" transform="translate(-42.3671875, -12)"><foreignObject width="84.734375" height="24"><div xmlns="http://www.w3.org/1999/xhtml" class="labelBkg" style="display: table-cell; white-space: nowrap; line-height: 1.5; max-width: 200px; text-align: center;"><span class="edgeLabel"><p>references</p></span></div></foreignObject></g></g><g class="edgeTerminals" transform="translate(597.4550368524941, 255.88313036122653)"><g class="inner" transform="translate(0, 0)"><foreignObject style="width: 9px; height: 12px;"><div xmlns="http://www.w3.org/1999/xhtml" style="display: inline-block; padding-right: 1px; white-space: nowrap;"><span class="edgeLabel">1</span></div></foreignObject></g></g><g class="edgeTerminals" transform="translate(479.1801580236442, 340.6694685673033)"><g class="inner" transform="translate(0, 0)"><foreignObject style="width: 9px; height: 12px;"><div xmlns="http://www.w3.org/1999/xhtml" style="display: inline-block; padding-right: 1px; white-space: nowrap;"><span class="edgeLabel">1</span></div></foreignObject></g></g><g class="edgeTerminals" transform="translate(814.71093875, 603.5000010714286)"><g class="inner" transform="translate(0, 0)"><foreignObject style="width: 9px; height: 12px;"><div xmlns="http://www.w3.org/1999/xhtml" style="display: inline-block; padding-right: 1px; white-space: nowrap;"><span class="edgeLabel">1</span></div></foreignObject></g></g><g class="edgeTerminals" transform="translate(483.24218875, 881.5000010714285)"><g class="inner" transform="translate(0, 0)"><foreignObject style="width: 9px; height: 12px;"><div xmlns="http://www.w3.org/1999/xhtml" style="display: inline-block; padding-right: 1px; white-space: nowrap;"><span class="edgeLabel">1</span></div></foreignObject></g></g><g class="edgeTerminals" transform="translate(834.476835701778, 345.95762356335257)"><g class="inner" transform="translate(0, 0)"/><foreignObject style="width: 9px; height: 12px;"><div xmlns="http://www.w3.org/1999/xhtml" style="display: inline-block; padding-right: 1px; white-space: nowrap;"><span class="edgeLabel">*</span></div></foreignObject></g><g class="edgeTerminals" transform="translate(508.24218874999997, 625.5000010714285)"><g class="inner" transform="translate(0, 0)"/><foreignObject style="width: 9px; height: 12px;"><div xmlns="http://www.w3.org/1999/xhtml" style="display: inline-block; padding-right: 1px; white-space: nowrap;"><span class="edgeLabel">*</span></div></foreignObject></g><g class="edgeTerminals" transform="translate(839.71093875, 613.5000010714286)"><g class="inner" transform="translate(0, 0)"/><foreignObject style="width: 9px; height: 12px;"><div xmlns="http://www.w3.org/1999/xhtml" style="display: inline-block; padding-right: 1px; white-space: nowrap;"><span class="edgeLabel">*</span></div></foreignObject></g><g class="edgeTerminals" transform="translate(527.9837314970392, 922.0028783780948)"><g class="inner" transform="translate(0, 0)"/><foreignObject style="width: 9px; height: 12px;"><div xmlns="http://www.w3.org/1999/xhtml" style="display: inline-block; padding-right: 1px; white-space: nowrap;"><span class="edgeLabel">*</span></div></foreignObject></g></g><g class="nodes"><g class="node default" id="classId-Experiment-0" transform="translate(431.599609375, 164)"><g class="basic label-container"><path d="M-156.1328125 -156 L156.1328125 -156 L156.1328125 156 L-156.1328125 156" stroke="none" stroke-width="0" fill="#ECECFF" style=""/><path d="M-156.1328125 -156 C-60.18281107906766 -156, 35.767190341864676 -156, 156.1328125 -156 M-156.1328125 -156 C-54.94350805745586 -156, 46.24579638508828 -156, 156.1328125 -156 M156.1328125 -156 C156.1328125 -82.50803183083961, 156.1328125 -9.016063661679226, 156.1328125 156 M156.1328125 -156 C156.1328125 -36.68787092484608, 156.1328125 82.62425815030784, 156.1328125 156 M156.1328125 156 C83.61245959774364 156, 11.092106695487274 156, -156.1328125 156 M156.1328125 156 C67.16980891438533 156, -21.793194671229344 156, -156.1328125 156 M-156.1328125 156 C-156.1328125 75.68744263919017, -156.1328125 -4.625114721619667, -156.1328125 -156 M-156.1328125 156 C-156.1328125 85.57784183669463, -156.1328125 15.155683673389262, -156.1328125 -156" stroke="#9370DB" stroke-width="1.3" fill="none" stroke-dasharray="0 0" style=""/></g><g class="annotation-group text" transform="translate(0, -132)"/><g class="label-group text" transform="translate(-51.75, -132)"><g class="label" style="font-weight: bolder" transform="translate(0,-12)"><foreignObject width="103.5" height="24"><div xmlns="http://www.w3.org/1999/xhtml" style="display: table-cell; white-space: nowrap; line-height: 1.5; max-width: 142px; text-align: center;"><span class="nodeLabel markdown-node-label" style=""><p>Experiment</p></span></div></foreignObject></g></g><g class="members-group text" transform="translate(-144.1328125, -84)"><g class="label" style="" transform="translate(0,-12)"><foreignObject width="58.78125" height="24"><div xmlns="http://www.w3.org/1999/xhtml" style="display: table-cell; white-space: nowrap; line-height: 1.5; max-width: 114px; text-align: center;"><span class="nodeLabel markdown-node-label" style=""><p>+name</p></span></div></foreignObject></g><g class="label" style="" transform="translate(0,12)"><foreignObject width="102.375" height="24"><div xmlns="http://www.w3.org/1999/xhtml" style="display: table-cell; white-space: nowrap; line-height: 1.5; max-width: 156px; text-align: center;"><span class="nodeLabel markdown-node-label" style=""><p>+description</p></span></div></foreignObject></g><g class="label" style="" transform="translate(0,36)"><foreignObject width="111.375" height="24"><div xmlns="http://www.w3.org/1999/xhtml" style="display: table-cell; white-space: nowrap; line-height: 1.5; max-width: 164px; text-align: center;"><span class="nodeLabel markdown-node-label" style=""><p>+trialSet: dict</p></span></div></foreignObject></g><g class="label" style="" transform="translate(0,60)"><foreignObject width="136.75" height="24"><div xmlns="http://www.w3.org/1999/xhtml" style="display: table-cell; white-space: nowrap; line-height: 1.5; max-width: 189px; text-align: center;"><span class="nodeLabel markdown-node-label" style=""><p>+entityType: dict</p></span></div></foreignObject></g><g class="label" style="" transform="translate(0,84)"><foreignObject width="137.15625" height="24"><div xmlns="http://www.w3.org/1999/xhtml" style="display: table-cell; white-space: nowrap; line-height: 1.5; max-width: 191px; text-align: center;"><span class="nodeLabel markdown-node-label" style=""><p>+imageMap: dict</p></span></div></foreignObject></g><g class="label" style="" transform="translate(0,108)"><foreignObject width="212.921875" height="24"><div xmlns="http://www.w3.org/1999/xhtml" style="display: table-cell; white-space: nowrap; line-height: 1.5; max-width: 266px; text-align: center;"><span class="nodeLabel markdown-node-label" style=""><p>+entitiesTable: DataFrame</p></span></div></foreignObject></g><g class="label" style="" transform="translate(0,132)"><foreignObject width="236.515625" height="24"><div xmlns="http://www.w3.org/1999/xhtml" style="display: table-cell; white-space: nowrap; line-height: 1.5; max-width: 290px; text-align: center;"><span class="nodeLabel markdown-node-label" style=""><p>+entityTypeTable: DataFrame</p></span></div></foreignObject></g></g><g class="methods-group text" transform="translate(-144.1328125, 108)"><g class="label" style="" transform="translate(0,-12)"><foreignObject width="82.140625" height="24"><div xmlns="http://www.w3.org/1999/xhtml" style="display: table-cell; white-space: nowrap; line-height: 1.5; max-width: 138px; text-align: center;"><span class="nodeLabel markdown-node-label" style=""><p>+refresh()</p></span></div></foreignObject></g><g class="label" style="" transform="translate(0,12)"><foreignObject width="81.390625" height="24"><div xmlns="http://www.w3.org/1999/xhtml" style="display: table-cell; white-space: nowrap; line-height: 1.5; max-width: 136px; text-align: center;"><span class="nodeLabel markdown-node-label" style=""><p>+toJSON()</p></span></div></foreignObject></g></g><g class="divider" style=""><path d="M-156.1328125 -108 C-42.7291838019468 -108, 70.6744448961064 -108, 156.1328125 -108 M-156.1328125 -108 C-41.45405600611099 -108, 73.22470048777802 -108, 156.1328125 -108" stroke="#9370DB" stroke-width="1.3" fill="none" stroke-dasharray="0 0" style=""/></g><g class="divider" style=""><path d="M-156.1328125 84 C-59.21247161778578 84, 37.70786926442844 84, 156.1328125 84 M-156.1328125 84 C-45.765422453351064 84, 64.60196759329787 84, 156.1328125 84" stroke="#9370DB" stroke-width="1.3" fill="none" stroke-dasharray="0 0" style=""/></g></g><g class="node default" id="classId-ExperimentZipFile-1" transform="translate(112.3359375, 478)"><g class="basic label-container"><path d="M-104.3359375 -75 L104.3359375 -75 L104.3359375 75 L-104.3359375 75" stroke="none" stroke-width="0" fill="#ECECFF" style=""/><path d="M-104.3359375 -75 C-62.310023538061344 -75, -20.284109576122688 -75, 104.3359375 -75 M-104.3359375 -75 C-41.376230902673285 -75, 21.58347569465343 -75, 104.3359375 -75 M104.3359375 -75 C104.3359375 -37.62599791434289, 104.3359375 -0.25199582868577863, 104.3359375 75 M104.3359375 -75 C104.3359375 -25.72967527429269, 104.3359375 23.540649451414623, 104.3359375 75 M104.3359375 75 C37.34075053007973 75, -29.654436439840538 75, -104.3359375 75 M104.3359375 75 C60.03234663442907 75, 15.728755768858136 75, -104.3359375 75 M-104.3359375 75 C-104.3359375 44.815412720666146, -104.3359375 14.630825441332298, -104.3359375 -75 M-104.3359375 75 C-104.3359375 17.497322571685665, -104.3359375 -40.00535485662867, -104.3359375 -75" stroke="#9370DB" stroke-width="1.3" fill="none" stroke-dasharray="0 0" style=""/></g><g class="annotation-group text" transform="translate(0, -51)"/><g class="label-group text" transform="translate(-82.390625, -51)"><g class="label" style="font-weight: bolder" transform="translate(0,-12)"><foreignObject width="164.78125" height="24"><div xmlns="http://www.w3.org/1999/xhtml" style="display: table-cell; white-space: nowrap; line-height: 1.5; max-width: 193px; text-align: center;"><span class="nodeLabel markdown-node-label" style=""><p>ExperimentZipFile</p></span></div></foreignObject></g></g><g class="members-group text" transform="translate(-92.3359375, -3)"/><g class="methods-group text" transform="translate(-92.3359375, 27)"><g class="label" style="" transform="translate(0,-12)"><foreignObject width="82.140625" height="24"><div xmlns="http://www.w3.org/1999/xhtml" style="display: table-cell; white-space: nowrap; line-height: 1.5; max-width: 138px; text-align: center;"><span class="nodeLabel markdown-node-label" style=""><p>+refresh()</p></span></div></foreignObject></g><g class="label" style="" transform="translate(0,12)"><foreignObject width="102.28125" height="24"><div xmlns="http://www.w3.org/1999/xhtml" style="display: table-cell; white-space: nowrap; line-height: 1.5; max-width: 157px; text-align: center;"><span class="nodeLabel markdown-node-label" style=""><p>+getImage()</p></span></div></foreignObject></g></g><g class="divider" style=""><path d="M-104.3359375 -27 C-56.616358017057145 -27, -8.89677853411429 -27, 104.3359375 -27 M-104.3359375 -27 C-49.99397474616315 -27, 4.347988007673706 -27, 104.3359375 -27" stroke="#9370DB" stroke-width="1.3" fill="none" stroke-dasharray="0 0" style=""/></g><g class="divider" style=""><path d="M-104.3359375 -3 C-55.18831329572051 -3, -6.040689091441024 -3, 104.3359375 -3 M-104.3359375 -3 C-21.746294123922624 -3, 60.84334925215475 -3, 104.3359375 -3" stroke="#9370DB" stroke-width="1.3" fill="none" stroke-dasharray="0 0" style=""/></g></g><g class="node default" id="classId-webExperiment-2" transform="translate(364.95703125, 478)"><g class="basic label-container"><path d="M-98.28515625 -63 L98.28515625 -63 L98.28515625 63 L-98.28515625 63" stroke="none" stroke-width="0" fill="#ECECFF" style=""/><path d="M-98.28515625 -63 C-27.55118816161965 -63, 43.1827799267607 -63, 98.28515625 -63 M-98.28515625 -63 C-50.1048391592162 -63, -1.9245220684323954 -63, 98.28515625 -63 M98.28515625 -63 C98.28515625 -19.829445936771144, 98.28515625 23.341108126457712, 98.28515625 63 M98.28515625 -63 C98.28515625 -16.660174137455684, 98.28515625 29.679651725088632, 98.28515625 63 M98.28515625 63 C55.11294296769718 63, 11.94072968539436 63, -98.28515625 63 M98.28515625 63 C58.61823949750761 63, 18.95132274501522 63, -98.28515625 63 M-98.28515625 63 C-98.28515625 35.700740799280794, -98.28515625 8.401481598561581, -98.28515625 -63 M-98.28515625 63 C-98.28515625 36.01535882352236, -98.28515625 9.030717647044732, -98.28515625 -63" stroke="#9370DB" stroke-width="1.3" fill="none" stroke-dasharray="0 0" style=""/></g><g class="annotation-group text" transform="translate(0, -39)"/><g class="label-group text" transform="translate(-70.2890625, -39)"><g class="label" style="font-weight: bolder" transform="translate(0,-12)"><foreignObject width="140.578125" height="24"><div xmlns="http://www.w3.org/1999/xhtml" style="display: table-cell; white-space: nowrap; line-height: 1.5; max-width: 175px; text-align: center;"><span class="nodeLabel markdown-node-label" style=""><p>webExperiment</p></span></div></foreignObject></g></g><g class="members-group text" transform="translate(-86.28515625, 9)"/><g class="methods-group text" transform="translate(-86.28515625, 39)"><g class="label" style="" transform="translate(0,-12)"><foreignObject width="102.28125" height="24"><div xmlns="http://www.w3.org/1999/xhtml" style="display: table-cell; white-space: nowrap; line-height: 1.5; max-width: 157px; text-align: center;"><span class="nodeLabel markdown-node-label" style=""><p>+getImage()</p></span></div></foreignObject></g></g><g class="divider" style=""><path d="M-98.28515625 -15 C-28.594384234255486 -15, 41.09638778148903 -15, 98.28515625 -15 M-98.28515625 -15 C-45.614803584716206 -15, 7.055549080567587 -15, 98.28515625 -15" stroke="#9370DB" stroke-width="1.3" fill="none" stroke-dasharray="0 0" style=""/></g><g class="divider" style=""><path d="M-98.28515625 9 C-36.82149536522957 9, 24.642165519540853 9, 98.28515625 9 M-98.28515625 9 C-51.91268589673372 9, -5.54021554346744 9, 98.28515625 9" stroke="#9370DB" stroke-width="1.3" fill="none" stroke-dasharray="0 0" style=""/></g></g><g class="node default" id="classId-TrialSet-3" transform="translate(829.7109375, 478)"><g class="basic label-container"><path d="M-133.328125 -108 L133.328125 -108 L133.328125 108 L-133.328125 108" stroke="none" stroke-width="0" fill="#ECECFF" style=""/><path d="M-133.328125 -108 C-38.21094825184234 -108, 56.90622849631532 -108, 133.328125 -108 M-133.328125 -108 C-68.95995329865946 -108, -4.5917815973189136 -108, 133.328125 -108 M133.328125 -108 C133.328125 -44.729458911676225, 133.328125 18.54108217664755, 133.328125 108 M133.328125 -108 C133.328125 -49.843278784152716, 133.328125 8.313442431694568, 133.328125 108 M133.328125 108 C42.63849696448381 108, -48.05113107103239 108, -133.328125 108 M133.328125 108 C54.71558665334521 108, -23.896951693309575 108, -133.328125 108 M-133.328125 108 C-133.328125 28.83822381432681, -133.328125 -50.32355237134638, -133.328125 -108 M-133.328125 108 C-133.328125 22.25227368419911, -133.328125 -63.49545263160178, -133.328125 -108" stroke="#9370DB" stroke-width="1.3" fill="none" stroke-dasharray="0 0" style=""/></g><g class="annotation-group text" transform="translate(0, -84)"/><g class="label-group text" transform="translate(-34.421875, -84)"><g class="label" style="font-weight: bolder" transform="translate(0,-12)"><foreignObject width="68.84375" height="24"><div xmlns="http://www.w3.org/1999/xhtml" style="display: table-cell; white-space: nowrap; line-height: 1.5; max-width: 110px; text-align: center;"><span class="nodeLabel markdown-node-label" style=""><p>TrialSet</p></span></div></foreignObject></g></g><g class="members-group text" transform="translate(-121.328125, -36)"><g class="label" style="" transform="translate(0,-12)"><foreignObject width="58.78125" height="24"><div xmlns="http://www.w3.org/1999/xhtml" style="display: table-cell; white-space: nowrap; line-height: 1.5; max-width: 114px; text-align: center;"><span class="nodeLabel markdown-node-label" style=""><p>+name</p></span></div></foreignObject></g><g class="label" style="" transform="translate(0,12)"><foreignObject width="208.234375" height="24"><div xmlns="http://www.w3.org/1999/xhtml" style="display: table-cell; white-space: nowrap; line-height: 1.5; max-width: 262px; text-align: center;"><span class="nodeLabel markdown-node-label" style=""><p>+experiment: Experiment</p></span></div></foreignObject></g><g class="label" style="" transform="translate(0,36)"><foreignObject width="135.203125" height="24"><div xmlns="http://www.w3.org/1999/xhtml" style="display: table-cell; white-space: nowrap; line-height: 1.5; max-width: 189px; text-align: center;"><span class="nodeLabel markdown-node-label" style=""><p>+properties: dict</p></span></div></foreignObject></g><g class="label" style="" transform="translate(0,60)"><foreignObject width="193.203125" height="24"><div xmlns="http://www.w3.org/1999/xhtml" style="display: table-cell; white-space: nowrap; line-height: 1.5; max-width: 247px; text-align: center;"><span class="nodeLabel markdown-node-label" style=""><p>+trialsTable: DataFrame</p></span></div></foreignObject></g></g><g class="methods-group text" transform="translate(-121.328125, 84)"><g class="label" style="" transform="translate(0,-12)"><foreignObject width="81.390625" height="24"><div xmlns="http://www.w3.org/1999/xhtml" style="display: table-cell; white-space: nowrap; line-height: 1.5; max-width: 136px; text-align: center;"><span class="nodeLabel markdown-node-label" style=""><p>+toJSON()</p></span></div></foreignObject></g></g><g class="divider" style=""><path d="M-133.328125 -60 C-26.90914003557691 -60, 79.50984492884618 -60, 133.328125 -60 M-133.328125 -60 C-57.35631621396537 -60, 18.615492572069257 -60, 133.328125 -60" stroke="#9370DB" stroke-width="1.3" fill="none" stroke-dasharray="0 0" style=""/></g><g class="divider" style=""><path d="M-133.328125 60 C-30.85388118889722 60, 71.62036262220556 60, 133.328125 60 M-133.328125 60 C-44.1956061185637 60, 44.936912762872595 60, 133.328125 60" stroke="#9370DB" stroke-width="1.3" fill="none" stroke-dasharray="0 0" style=""/></g></g><g class="node default" id="classId-Trial-4" transform="translate(829.7109375, 756)"><g class="basic label-container"><path d="M-139.1875 -120 L139.1875 -120 L139.1875 120 L-139.1875 120" stroke="none" stroke-width="0" fill="#ECECFF" style=""/><path d="M-139.1875 -120 C-53.27569868705257 -120, 32.636102625894864 -120, 139.1875 -120 M-139.1875 -120 C-48.65007031566586 -120, 41.887359368668285 -120, 139.1875 -120 M139.1875 -120 C139.1875 -60.80499470003551, 139.1875 -1.609989400071015, 139.1875 120 M139.1875 -120 C139.1875 -57.71325680652892, 139.1875 4.5734863869421645, 139.1875 120 M139.1875 120 C35.70552847300118 120, -67.77644305399764 120, -139.1875 120 M139.1875 120 C61.74045896538334 120, -15.70658206923332 120, -139.1875 120 M-139.1875 120 C-139.1875 38.639518722082215, -139.1875 -42.72096255583557, -139.1875 -120 M-139.1875 120 C-139.1875 37.49000530388119, -139.1875 -45.01998939223762, -139.1875 -120" stroke="#9370DB" stroke-width="1.3" fill="none" stroke-dasharray="0 0" style=""/></g><g class="annotation-group text" transform="translate(0, -96)"/><g class="label-group text" transform="translate(-19.40625, -96)"><g class="label" style="font-weight: bolder" transform="translate(0,-12)"><foreignObject width="38.8125" height="24"><div xmlns="http://www.w3.org/1999/xhtml" style="display: table-cell; white-space: nowrap; line-height: 1.5; max-width: 84px; text-align: center;"><span class="nodeLabel markdown-node-label" style=""><p>Trial</p></span></div></foreignObject></g></g><g class="members-group text" transform="translate(-127.1875, -48)"><g class="label" style="" transform="translate(0,-12)"><foreignObject width="58.78125" height="24"><div xmlns="http://www.w3.org/1999/xhtml" style="display: table-cell; white-space: nowrap; line-height: 1.5; max-width: 114px; text-align: center;"><span class="nodeLabel markdown-node-label" style=""><p>+name</p></span></div></foreignObject></g><g class="label" style="" transform="translate(0,12)"><foreignObject width="140.671875" height="24"><div xmlns="http://www.w3.org/1999/xhtml" style="display: table-cell; white-space: nowrap; line-height: 1.5; max-width: 194px; text-align: center;"><span class="nodeLabel markdown-node-label" style=""><p>+trialSet: TrialSet</p></span></div></foreignObject></g><g class="label" style="" transform="translate(0,36)"><foreignObject width="135.203125" height="24"><div xmlns="http://www.w3.org/1999/xhtml" style="display: table-cell; white-space: nowrap; line-height: 1.5; max-width: 189px; text-align: center;"><span class="nodeLabel markdown-node-label" style=""><p>+properties: dict</p></span></div></foreignObject></g><g class="label" style="" transform="translate(0,60)"><foreignObject width="113.15625" height="24"><div xmlns="http://www.w3.org/1999/xhtml" style="display: table-cell; white-space: nowrap; line-height: 1.5; max-width: 165px; text-align: center;"><span class="nodeLabel markdown-node-label" style=""><p>+entities: dict</p></span></div></foreignObject></g><g class="label" style="" transform="translate(0,84)"><foreignObject width="234.96875" height="24"><div xmlns="http://www.w3.org/1999/xhtml" style="display: table-cell; white-space: nowrap; line-height: 1.5; max-width: 290px; text-align: center;"><span class="nodeLabel markdown-node-label" style=""><p>+propertiesTable: DataFrame</p></span></div></foreignObject></g></g><g class="methods-group text" transform="translate(-127.1875, 96)"><g class="label" style="" transform="translate(0,-12)"><foreignObject width="126.875" height="24"><div xmlns="http://www.w3.org/1999/xhtml" style="display: table-cell; white-space: nowrap; line-height: 1.5; max-width: 179px; text-align: center;"><span class="nodeLabel markdown-node-label" style=""><p>+entitiesTable()</p></span></div></foreignObject></g></g><g class="divider" style=""><path d="M-139.1875 -72 C-68.3626052350002 -72, 2.4622895299995946 -72, 139.1875 -72 M-139.1875 -72 C-44.41776788371651 -72, 50.351964232566985 -72, 139.1875 -72" stroke="#9370DB" stroke-width="1.3" fill="none" stroke-dasharray="0 0" style=""/></g><g class="divider" style=""><path d="M-139.1875 72 C-38.26161606149536 72, 62.66426787700928 72, 139.1875 72 M-139.1875 72 C-42.01027573089391 72, 55.16694853821218 72, 139.1875 72" stroke="#9370DB" stroke-width="1.3" fill="none" stroke-dasharray="0 0" style=""/></g></g><g class="node default" id="classId-EntityType-5" transform="translate(498.2421875, 756)"><g class="basic label-container"><path d="M-142.28125 -108 L142.28125 -108 L142.28125 108 L-142.28125 108" stroke="none" stroke-width="0" fill="#ECECFF" style=""/><path d="M-142.28125 -108 C-79.46600693254507 -108, -16.650763865090127 -108, 142.28125 -108 M-142.28125 -108 C-30.179640627901748 -108, 81.9219687441965 -108, 142.28125 -108 M142.28125 -108 C142.28125 -60.37169324469092, 142.28125 -12.743386489381834, 142.28125 108 M142.28125 -108 C142.28125 -28.38941074871755, 142.28125 51.2211785025649, 142.28125 108 M142.28125 108 C83.58967449587637 108, 24.898098991752732 108, -142.28125 108 M142.28125 108 C70.06469881246302 108, -2.1518523750739575 108, -142.28125 108 M-142.28125 108 C-142.28125 38.684848703171525, -142.28125 -30.63030259365695, -142.28125 -108 M-142.28125 108 C-142.28125 60.28318370142873, -142.28125 12.566367402857466, -142.28125 -108" stroke="#9370DB" stroke-width="1.3" fill="none" stroke-dasharray="0 0" style=""/></g><g class="annotation-group text" transform="translate(0, -84)"/><g class="label-group text" transform="translate(-47.640625, -84)"><g class="label" style="font-weight: bolder" transform="translate(0,-12)"><foreignObject width="95.28125" height="24"><div xmlns="http://www.w3.org/1999/xhtml" style="display: table-cell; white-space: nowrap; line-height: 1.5; max-width: 132px; text-align: center;"><span class="nodeLabel markdown-node-label" style=""><p>EntityType</p></span></div></foreignObject></g></g><g class="members-group text" transform="translate(-130.28125, -36)"><g class="label" style="" transform="translate(0,-12)"><foreignObject width="58.78125" height="24"><div xmlns="http://www.w3.org/1999/xhtml" style="display: table-cell; white-space: nowrap; line-height: 1.5; max-width: 114px; text-align: center;"><span class="nodeLabel markdown-node-label" style=""><p>+name</p></span></div></foreignObject></g><g class="label" style="" transform="translate(0,12)"><foreignObject width="208.234375" height="24"><div xmlns="http://www.w3.org/1999/xhtml" style="display: table-cell; white-space: nowrap; line-height: 1.5; max-width: 262px; text-align: center;"><span class="nodeLabel markdown-node-label" style=""><p>+experiment: Experiment</p></span></div></foreignObject></g><g class="label" style="" transform="translate(0,36)"><foreignObject width="135.203125" height="24"><div xmlns="http://www.w3.org/1999/xhtml" style="display: table-cell; white-space: nowrap; line-height: 1.5; max-width: 189px; text-align: center;"><span class="nodeLabel markdown-node-label" style=""><p>+properties: dict</p></span></div></foreignObject></g><g class="label" style="" transform="translate(0,60)"><foreignObject width="212.921875" height="24"><div xmlns="http://www.w3.org/1999/xhtml" style="display: table-cell; white-space: nowrap; line-height: 1.5; max-width: 266px; text-align: center;"><span class="nodeLabel markdown-node-label" style=""><p>+entitiesTable: DataFrame</p></span></div></foreignObject></g></g><g class="methods-group text" transform="translate(-130.28125, 84)"><g class="label" style="" transform="translate(0,-12)"><foreignObject width="81.390625" height="24"><div xmlns="http://www.w3.org/1999/xhtml" style="display: table-cell; white-space: nowrap; line-height: 1.5; max-width: 136px; text-align: center;"><span class="nodeLabel markdown-node-label" style=""><p>+toJSON()</p></span></div></foreignObject></g></g><g class="divider" style=""><path d="M-142.28125 -60 C-80.22088478268404 -60, -18.160519565368077 -60, 142.28125 -60 M-142.28125 -60 C-73.51804588589403 -60, -4.754841771788051 -60, 142.28125 -60" stroke="#9370DB" stroke-width="1.3" fill="none" stroke-dasharray="0 0" style=""/></g><g class="divider" style=""><path d="M-142.28125 60 C-67.61352794289287 60, 7.054194114214255 60, 142.28125 60 M-142.28125 60 C-59.55463155911342 60, 23.171986881773165 60, 142.28125 60" stroke="#9370DB" stroke-width="1.3" fill="none" stroke-dasharray="0 0" style=""/></g></g><g class="node default" id="classId-Entity-6" transform="translate(663.9765625, 1082)"><g class="basic label-container"><path d="M-142.8671875 -132 L142.8671875 -132 L142.8671875 132 L-142.8671875 132" stroke="none" stroke-width="0" fill="#ECECFF" style=""/><path d="M-142.8671875 -132 C-53.80563423321087 -132, 35.255919033578266 -132, 142.8671875 -132 M-142.8671875 -132 C-51.553098255745965 -132, 39.76099098850807 -132, 142.8671875 -132 M142.8671875 -132 C142.8671875 -62.878690913575795, 142.8671875 6.24261817284841, 142.8671875 132 M142.8671875 -132 C142.8671875 -39.59649699086344, 142.8671875 52.807006018273114, 142.8671875 132 M142.8671875 132 C39.32387187811575 132, -64.2194437437685 132, -142.8671875 132 M142.8671875 132 C40.696877296108866 132, -61.47343290778227 132, -142.8671875 132 M-142.8671875 132 C-142.8671875 32.983177783356794, -142.8671875 -66.03364443328641, -142.8671875 -132 M-142.8671875 132 C-142.8671875 47.372361067591214, -142.8671875 -37.25527786481757, -142.8671875 -132" stroke="#9370DB" stroke-width="1.3" fill="none" stroke-dasharray="0 0" style=""/></g><g class="annotation-group text" transform="translate(0, -108)"/><g class="label-group text" transform="translate(-26.765625, -108)"><g class="label" style="font-weight: bolder" transform="translate(0,-12)"><foreignObject width="53.53125" height="24"><div xmlns="http://www.w3.org/1999/xhtml" style="display: table-cell; white-space: nowrap; line-height: 1.5; max-width: 95px; text-align: center;"><span class="nodeLabel markdown-node-label" style=""><p>Entity</p></span></div></foreignObject></g></g><g class="members-group text" transform="translate(-130.8671875, -60)"><g class="label" style="" transform="translate(0,-12)"><foreignObject width="58.78125" height="24"><div xmlns="http://www.w3.org/1999/xhtml" style="display: table-cell; white-space: nowrap; line-height: 1.5; max-width: 114px; text-align: center;"><span class="nodeLabel markdown-node-label" style=""><p>+name</p></span></div></foreignObject></g><g class="label" style="" transform="translate(0,12)"><foreignObject width="128.265625" height="24"><div xmlns="http://www.w3.org/1999/xhtml" style="display: table-cell; white-space: nowrap; line-height: 1.5; max-width: 181px; text-align: center;"><span class="nodeLabel markdown-node-label" style=""><p>+entityType: str</p></span></div></foreignObject></g><g class="label" style="" transform="translate(0,36)"><foreignObject width="135.203125" height="24"><div xmlns="http://www.w3.org/1999/xhtml" style="display: table-cell; white-space: nowrap; line-height: 1.5; max-width: 189px; text-align: center;"><span class="nodeLabel markdown-node-label" style=""><p>+properties: dict</p></span></div></foreignObject></g><g class="label" style="" transform="translate(0,60)"><foreignObject width="153.109375" height="24"><div xmlns="http://www.w3.org/1999/xhtml" style="display: table-cell; white-space: nowrap; line-height: 1.5; max-width: 207px; text-align: center;"><span class="nodeLabel markdown-node-label" style=""><p>+allProperties: dict</p></span></div></foreignObject></g><g class="label" style="" transform="translate(0,84)"><foreignObject width="234.96875" height="24"><div xmlns="http://www.w3.org/1999/xhtml" style="display: table-cell; white-space: nowrap; line-height: 1.5; max-width: 290px; text-align: center;"><span class="nodeLabel markdown-node-label" style=""><p>+propertiesTable: DataFrame</p></span></div></foreignObject></g></g><g class="methods-group text" transform="translate(-130.8671875, 84)"><g class="label" style="" transform="translate(0,-12)"><foreignObject width="138.296875" height="24"><div xmlns="http://www.w3.org/1999/xhtml" style="display: table-cell; white-space: nowrap; line-height: 1.5; max-width: 193px; text-align: center;"><span class="nodeLabel markdown-node-label" style=""><p>+trialProperties()</p></span></div></foreignObject></g><g class="label" style="" transform="translate(0,12)"><foreignObject width="81.390625" height="24"><div xmlns="http://www.w3.org/1999/xhtml" style="display: table-cell; white-space: nowrap; line-height: 1.5; max-width: 136px; text-align: center;"><span class="nodeLabel markdown-node-label" style=""><p>+toJSON()</p></span></div></foreignObject></g></g><g class="divider" style=""><path d="M-142.8671875 -84 C-43.56878971801258 -84, 55.72960806397484 -84, 142.8671875 -84 M-142.8671875 -84 C-82.29397836531581 -84, -21.720769230631603 -84, 142.8671875 -84" stroke="#9370DB" stroke-width="1.3" fill="none" stroke-dasharray="0 0" style=""/></g><g class="divider" style=""><path d="M-142.8671875 60 C-49.86079969040601 60, 43.14558811918798 60, 142.8671875 60 M-142.8671875 60 C-48.29869571645679 60, 46.26979606708642 60, 142.8671875 60" stroke="#9370DB" stroke-width="1.3" fill="none" stroke-dasharray="0 0" style=""/></g></g></g></g></g></svg>