<svg id="my-svg" width="100%" xmlns="http://www.w3.org/2000/svg" xmlns:xlink="http://www.w3.org/1999/xlink" class="classDiagram" style="max-width: 902.719px; background-color: transparent;" viewBox="0 0 902.71875 432" role="graphics-document document" aria-roledescription="class"><style>#my-svg{font-family:"trebuchet ms",verdana,arial,sans-serif;font-size:16px;fill:#333;}@keyframes edge-animation-frame{from{stroke-dashoffset:0;}}@keyframes dash{to{stroke-dashoffset:0;}}#my-svg .edge-animation-slow{stroke-dasharray:9,5!important;stroke-dashoffset:900;animation:dash 50s linear infinite;stroke-linecap:round;}#my-svg .edge-animation-fast{stroke-dasharray:9,5!important;stroke-dashoffset:900;animation:dash 20s linear infinite;stroke-linecap:round;}#my-svg .error-icon{fill:#552222;}#my-svg .error-text{fill:#552222;stroke:#552222;}#my-svg .edge-thickness-normal{stroke-width:1px;}#my-svg .edge-thickness-thick{stroke-width:3.5px;}#my-svg .edge-pattern-solid{stroke-dasharray:0;}#my-svg .edge-thickness-invisible{stroke-width:0;fill:none;}#my-svg .edge-pattern-dashed{stroke-dasharray:3;}#my-svg .edge-pattern-dotted{stroke-dasharray:2;}#my-svg .marker{fill:#333333;stroke:#333333;}#my-svg .marker.cross{stroke:#333333;}#my-svg svg{font-family:"trebuchet ms",verdana,arial,sans-serif;font-size:16px;}#my-svg p{margin:0;}#my-svg g.classGroup text{fill:#9370DB;stroke:none;font-family:"trebuchet ms",verdana,arial,sans-serif;font-size:10px;}#my-svg g.classGroup text .title{font-weight:bolder;}#my-svg .nodeLabel,#my-svg .edgeLabel{color:#131300;}#my-svg .edgeLabel .label rect{fill:#ECECFF;}#my-svg .label text{fill:#131300;}#my-svg .labelBkg{background:#ECECFF;}#my-svg .edgeLabel .label span{background:#ECECFF;}#my-svg .classTitle{font-weight:bolder;}#my-svg .node rect,#my-svg .node circle,#my-svg .node ellipse,#my-svg .node polygon,#my-svg .node path{fill:#ECECFF;stroke:#9370DB;stroke-width:1px;}#my-svg .divider{stroke:#9370DB;stroke-width:1;}#my-svg g.clickable{cursor:pointer;}#my-svg g.classGroup rect{fill:#ECECFF;stroke:#9370DB;}#my-svg g.classGroup line{stroke:#9370DB;stroke-width:1;}#my-svg .classLabel .box{stroke:none;stroke-width:0;fill:#ECECFF;opacity:0.5;}#my-svg .classLabel .label{fill:#9370DB;font-size:10px;}#my-svg .relation{stroke:#333333;stroke-width:1;fill:none;}#my-svg .dashed-line{stroke-dasharray:3;}#my-svg .dotted-line{stroke-dasharray:1 2;}#my-svg #compositionStart,#my-svg .composition{fill:#333333!important;stroke:#333333!important;stroke-width:1;}#my-svg #compositionEnd,#my-svg .composition{fill:#333333!important;stroke:#333333!important;stroke-width:1;}#my-svg #dependencyStart,#my-svg .dependency{fill:#333333!important;stroke:#333333!important;stroke-width:1;}#my-svg #dependencyStart,#my-svg .dependency{fill:#333333!important;stroke:#333333!important;stroke-width:1;}#my-svg #extensionStart,#my-svg .extension{fill:transparent!important;stroke:#333333!important;stroke-width:1;}#my-svg #extensionEnd,#my-svg .extension{fill:transparent!important;stroke:#333333!important;stroke-width:1;}#my-svg #aggregationStart,#my-svg .aggregation{fill:transparent!important;stroke:#333333!important;stroke-width:1;}#my-svg #aggregationEnd,#my-svg .aggregation{fill:transparent!important;stroke:#333333!important;stroke-width:1;}#my-svg #lollipopStart,#my-svg .lollipop{fill:#ECECFF!important;stroke:#333333!important;stroke-width:1;}#my-svg #lollipopEnd,#my-svg .lollipop{fill:#ECECFF!important;stroke:#333333!important;stroke-width:1;}#my-svg .edgeTerminals{font-size:11px;line-height:initial;}#my-svg .classTitleText{text-anchor:middle;font-size:18px;fill:#333;}#my-svg .label-icon{display:inline-block;height:1em;overflow:visible;vertical-align:-0.125em;}#my-svg .node .label-icon path{fill:currentColor;stroke:revert;stroke-width:revert;}#my-svg :root{--mermaid-font-family:"trebuchet ms",verdana,arial,sans-serif;}</style><g><defs><marker id="my-svg_class-aggregationStart" class="marker aggregation class" refX="18" refY="7" markerWidth="190" markerHeight="240" orient="auto"><path d="M 18,7 L9,13 L1,7 L9,1 Z"/></marker></defs><defs><marker id="my-svg_class-aggregationEnd" class="marker aggregation class" refX="1" refY="7" markerWidth="20" markerHeight="28" orient="auto"><path d="M 18,7 L9,13 L1,7 L9,1 Z"/></marker></defs><defs><marker id="my-svg_class-extensionStart" class="marker extension class" refX="18" refY="7" markerWidth="190" markerHeight="240" orient="auto"><path d="M 1,7 L18,13 V 1 Z"/></marker></defs><defs><marker id="my-svg_class-extensionEnd" class="marker extension class" refX="1" refY="7" markerWidth="20" markerHeight="28" orient="auto"><path d="M 1,1 V 13 L18,7 Z"/></marker></defs><defs><marker id="my-svg_class-compositionStart" class="marker composition class" refX="18" refY="7" markerWidth="190" markerHeight="240" orient="auto"><path d="M 18,7 L9,13 L1,7 L9,1 Z"/></marker></defs><defs><marker id="my-svg_class-compositionEnd" class="marker composition class" refX="1" refY="7" markerWidth="20" markerHeight="28" orient="auto"><path d="M 18,7 L9,13 L1,7 L9,1 Z"/></marker></defs><defs><marker id="my-svg_class-dependencyStart" class="marker dependency class" refX="6" refY="7" markerWidth="190" markerHeight="240" orient="auto"><path d="M 5,7 L9,13 L1,7 L9,1 Z"/></marker></defs><defs><marker id="my-svg_class-dependencyEnd" class="marker dependency class" refX="13" refY="7" markerWidth="20" markerHeight="28" orient="auto"><path d="M 18,7 L9,13 L14,7 L9,1 Z"/></marker></defs><defs><marker id="my-svg_class-lollipopStart" class="marker lollipop class" refX="13" refY="7" markerWidth="190" markerHeight="240" orient="auto"><circle stroke="black" fill="transparent" cx="7" cy="7" r="6"/></marker></defs><defs><marker id="my-svg_class-lollipopEnd" class="marker lollipop class" refX="1" refY="7" markerWidth="190" markerHeight="240" orient="auto"><circle stroke="black" fill="transparent" cx="7" cy="7" r="6"/></marker></defs><g class="root"><g class="clusters"/><g class="edgePaths"><path d="M139.829,164L126.381,172.167C112.932,180.333,86.034,196.667,74.249,210.047C62.464,223.428,65.791,233.856,67.454,239.07L69.118,244.284" id="id_consume_topic_KafkaConsumer_1" class="edge-thickness-normal edge-pattern-solid relation" style=";;;" data-edge="true" data-et="edge" data-id="id_consume_topic_KafkaConsumer_1" data-points="W3sieCI6MTM5LjgyOTQ4MDg4ODQyOTc3LCJ5IjoxNjR9LHsieCI6NTkuMTM2NzE4NzUsInkiOjIxM30seyJ4Ijo3MC45NDE2NTgyNjYxMjkwMiwieSI6MjUwfV0=" marker-end="url(#my-svg_class-dependencyEnd)"/><path d="M261.432,164L261.776,172.167C262.12,180.333,262.808,196.667,273.966,212.902C285.124,229.137,306.751,245.275,317.565,253.343L328.379,261.412" id="id_consume_topic_writeToParquet_2" class="edge-thickness-normal edge-pattern-solid relation" style=";;;" data-edge="true" data-et="edge" data-id="id_consume_topic_writeToParquet_2" data-points="W3sieCI6MjYxLjQzMTc1MzYxNTcwMjQ2LCJ5IjoxNjR9LHsieCI6MjYzLjQ5NjA5Mzc1LCJ5IjoyMTN9LHsieCI6MzMzLjE4NzYyNjAwODA2NDUsInkiOjI2NX1d" marker-end="url(#my-svg_class-dependencyEnd)"/><path d="M383.711,127.28L434.456,141.567C485.201,155.854,586.69,184.427,643.077,206.568C699.463,228.709,710.746,244.418,716.388,252.272L722.03,260.127" id="id_consume_topic_appendToParquet_3" class="edge-thickness-normal edge-pattern-solid relation" style=";;;" data-edge="true" data-et="edge" data-id="id_consume_topic_appendToParquet_3" data-points="W3sieCI6MzgzLjcxMDkzNzUsInkiOjEyNy4yODAzMDI0Nzk0NTkwMn0seyJ4Ijo2ODguMTc5Njg3NSwieSI6MjEzfSx7IngiOjcyNS41MzAxMTU5Mjc0MTk0LCJ5IjoyNjV9XQ==" marker-end="url(#my-svg_class-dependencyEnd)"/><path d="M433.711,138.568L391.87,150.973C350.03,163.379,266.349,188.189,220.893,205.933C175.438,223.677,168.207,234.355,164.592,239.693L160.977,245.032" id="id_consume_topic_server_KafkaConsumer_4" class="edge-thickness-normal edge-pattern-solid relation" style=";;;" data-edge="true" data-et="edge" data-id="id_consume_topic_server_KafkaConsumer_4" data-points="W3sieCI6NDMzLjcxMDkzNzUsInkiOjEzOC41Njc3NzIxOTQzMDQ4N30seyJ4IjoxODIuNjY3OTY4NzUsInkiOjIxM30seyJ4IjoxNTcuNjEyNzc3MjE3NzQxOTUsInkiOjI1MH1d" marker-end="url(#my-svg_class-dependencyEnd)"/><path d="M590.773,176L590.773,182.167C590.773,188.333,590.773,200.667,580.307,214.89C569.84,229.113,548.907,245.227,538.441,253.283L527.974,261.34" id="id_consume_topic_server_writeToParquet_5" class="edge-thickness-normal edge-pattern-solid relation" style=";;;" data-edge="true" data-et="edge" data-id="id_consume_topic_server_writeToParquet_5" data-points="W3sieCI6NTkwLjc3MzQzNzUsInkiOjE3Nn0seyJ4Ijo1OTAuNzczNDM3NSwieSI6MjEzfSx7IngiOjUyMy4yMTk2MzIwNTY0NTE2LCJ5IjoyNjV9XQ==" marker-end="url(#my-svg_class-dependencyEnd)"/><path d="M747.836,172.014L761.245,178.845C774.654,185.676,801.471,199.338,811.693,213.911C821.915,228.484,815.542,243.968,812.355,251.71L809.168,259.452" id="id_consume_topic_server_appendToParquet_6" class="edge-thickness-normal edge-pattern-solid relation" style=";;;" data-edge="true" data-et="edge" data-id="id_consume_topic_server_appendToParquet_6" data-points="W3sieCI6NzQ3LjgzNTkzNzUsInkiOjE3Mi4wMTM5NDY0NTA4OTEzOH0seyJ4Ijo4MjguMjg5MDYyNSwieSI6MjEzfSx7IngiOjgwNi44ODM5NDY1NzI1ODA2LCJ5IjoyNjV9XQ==" marker-end="url(#my-svg_class-dependencyEnd)"/></g><g class="edgeLabels"><g class="edgeLabel" transform="translate(82.88489, 198.57912)"><g class="label" data-id="id_consume_topic_KafkaConsumer_1" transform="translate(-29.5625, -12)"><foreignObject width="59.125" height="24"><div xmlns="http://www.w3.org/1999/xhtml" class="labelBkg" style="display: table-cell; white-space: nowrap; line-height: 1.5; max-width: 200px; text-align: center;"><span class="edgeLabel"><p>creates</p></span></div></foreignObject></g></g><g class="edgeLabel" transform="translate(263.49609375, 213)"><g class="label" data-id="id_consume_topic_writeToParquet_2" transform="translate(-31.265625, -12)"><foreignObject width="62.53125" height="24"><div xmlns="http://www.w3.org/1999/xhtml" class="labelBkg" style="display: table-cell; white-space: nowrap; line-height: 1.5; max-width: 200px; text-align: center;"><span class="edgeLabel"><p>new file</p></span></div></foreignObject></g></g><g class="edgeLabel" transform="translate(566.75931, 178.81548)"><g class="label" data-id="id_consume_topic_appendToParquet_3" transform="translate(-46.140625, -12)"><foreignObject width="92.28125" height="24"><div xmlns="http://www.w3.org/1999/xhtml" class="labelBkg" style="display: table-cell; white-space: nowrap; line-height: 1.5; max-width: 200px; text-align: center;"><span class="edgeLabel"><p>existing file</p></span></div></foreignObject></g></g><g class="edgeLabel" transform="translate(286.76858, 182.135)"><g class="label" data-id="id_consume_topic_server_KafkaConsumer_4" transform="translate(-29.5625, -12)"><foreignObject width="59.125" height="24"><div xmlns="http://www.w3.org/1999/xhtml" class="labelBkg" style="display: table-cell; white-space: nowrap; line-height: 1.5; max-width: 200px; text-align: center;"><span class="edgeLabel"><p>creates</p></span></div></foreignObject></g></g><g class="edgeLabel" transform="translate(590.7734375, 213)"><g class="label" data-id="id_consume_topic_server_writeToParquet_5" transform="translate(-31.265625, -12)"><foreignObject width="62.53125" height="24"><div xmlns="http://www.w3.org/1999/xhtml" class="labelBkg" style="display: table-cell; white-space: nowrap; line-height: 1.5; max-width: 200px; text-align: center;"><span class="edgeLabel"><p>new file</p></span></div></foreignObject></g></g><g class="edgeLabel" transform="translate(813.11546, 205.26996)"><g class="label" data-id="id_consume_topic_server_appendToParquet_6" transform="translate(-46.140625, -12)"><foreignObject width="92.28125" height="24"><div xmlns="http://www.w3.org/1999/xhtml" class="labelBkg" style="display: table-cell; white-space: nowrap; line-height: 1.5; max-width: 200px; text-align: center;"><span class="edgeLabel"><p>existing file</p></span></div></foreignObject></g></g></g><g class="nodes"><g class="node default" id="classId-consume_topic-0" transform="translate(258.3984375, 92)"><g class="basic label-container"><path d="M-125.3125 -72 L125.3125 -72 L125.3125 72 L-125.3125 72" stroke="none" stroke-width="0" fill="#ECECFF" style=""/><path d="M-125.3125 -72 C-40.87918186304094 -72, 43.55413627391812 -72, 125.3125 -72 M-125.3125 -72 C-51.69350729835186 -72, 21.92548540329628 -72, 125.3125 -72 M125.3125 -72 C125.3125 -22.410233824666207, 125.3125 27.179532350667586, 125.3125 72 M125.3125 -72 C125.3125 -39.08579295582582, 125.3125 -6.171585911651647, 125.3125 72 M125.3125 72 C65.29026447181856 72, 5.26802894363712 72, -125.3125 72 M125.3125 72 C44.57325389975634 72, -36.165992200487324 72, -125.3125 72 M-125.3125 72 C-125.3125 35.49448732937863, -125.3125 -1.0110253412427426, -125.3125 -72 M-125.3125 72 C-125.3125 26.353427752166375, -125.3125 -19.29314449566725, -125.3125 -72" stroke="#9370DB" stroke-width="1.3" fill="none" stroke-dasharray="0 0" style=""/></g><g class="annotation-group text" transform="translate(0, -48)"/><g class="label-group text" transform="translate(-66.6875, -48)"><g class="label" style="font-weight: bolder" transform="translate(0,-12)"><foreignObject width="133.375" height="24"><div xmlns="http://www.w3.org/1999/xhtml" style="display: table-cell; white-space: nowrap; line-height: 1.5; max-width: 170px; text-align: center;"><span class="nodeLabel markdown-node-label" style=""><p>consume_topic</p></span></div></foreignObject></g></g><g class="members-group text" transform="translate(-113.3125, 0)"><g class="label" style="" transform="translate(0,-12)"><foreignObject width="89.625" height="24"><div xmlns="http://www.w3.org/1999/xhtml" style="display: table-cell; white-space: nowrap; line-height: 1.5; max-width: 143px; text-align: center;"><span class="nodeLabel markdown-node-label" style=""><p>+topic : str</p></span></div></foreignObject></g><g class="label" style="" transform="translate(0,12)"><foreignObject width="159.9375" height="24"><div xmlns="http://www.w3.org/1999/xhtml" style="display: table-cell; white-space: nowrap; line-height: 1.5; max-width: 214px; text-align: center;"><span class="nodeLabel markdown-node-label" style=""><p>+dataDirectory : str</p></span></div></foreignObject></g></g><g class="methods-group text" transform="translate(-113.3125, 72)"/><g class="divider" style=""><path d="M-125.3125 -24 C-57.79053209385185 -24, 9.731435812296297 -24, 125.3125 -24 M-125.3125 -24 C-28.694025264680818 -24, 67.92444947063836 -24, 125.3125 -24" stroke="#9370DB" stroke-width="1.3" fill="none" stroke-dasharray="0 0" style=""/></g><g class="divider" style=""><path d="M-125.3125 48 C-27.914557875205134 48, 69.48338424958973 48, 125.3125 48 M-125.3125 48 C-34.03890663270222 48, 57.234686734595556 48, 125.3125 48" stroke="#9370DB" stroke-width="1.3" fill="none" stroke-dasharray="0 0" style=""/></g></g><g class="node default" id="classId-consume_topic_server-1" transform="translate(590.7734375, 92)"><g class="basic label-container"><path d="M-157.0625 -84 L157.0625 -84 L157.0625 84 L-157.0625 84" stroke="none" stroke-width="0" fill="#ECECFF" style=""/><path d="M-157.0625 -84 C-63.03158973619051 -84, 30.999320527618977 -84, 157.0625 -84 M-157.0625 -84 C-44.139216685670775 -84, 68.78406662865845 -84, 157.0625 -84 M157.0625 -84 C157.0625 -21.402988519116548, 157.0625 41.194022961766905, 157.0625 84 M157.0625 -84 C157.0625 -21.799907919896853, 157.0625 40.400184160206294, 157.0625 84 M157.0625 84 C54.89959908044706 84, -47.26330183910588 84, -157.0625 84 M157.0625 84 C57.8039269407965 84, -41.454646118407 84, -157.0625 84 M-157.0625 84 C-157.0625 28.27995212693658, -157.0625 -27.440095746126843, -157.0625 -84 M-157.0625 84 C-157.0625 48.46810063226443, -157.0625 12.936201264528862, -157.0625 -84" stroke="#9370DB" stroke-width="1.3" fill="none" stroke-dasharray="0 0" style=""/></g><g class="annotation-group text" transform="translate(0, -60)"/><g class="label-group text" transform="translate(-99.40625, -60)"><g class="label" style="font-weight: bolder" transform="translate(0,-12)"><foreignObject width="198.8125" height="24"><div xmlns="http://www.w3.org/1999/xhtml" style="display: table-cell; white-space: nowrap; line-height: 1.5; max-width: 229px; text-align: center;"><span class="nodeLabel markdown-node-label" style=""><p>consume_topic_server</p></span></div></foreignObject></g></g><g class="members-group text" transform="translate(-145.0625, -12)"><g class="label" style="" transform="translate(0,-12)"><foreignObject width="89.625" height="24"><div xmlns="http://www.w3.org/1999/xhtml" style="display: table-cell; white-space: nowrap; line-height: 1.5; max-width: 143px; text-align: center;"><span class="nodeLabel markdown-node-label" style=""><p>+topic : str</p></span></div></foreignObject></g><g class="label" style="" transform="translate(0,12)"><foreignObject width="159.9375" height="24"><div xmlns="http://www.w3.org/1999/xhtml" style="display: table-cell; white-space: nowrap; line-height: 1.5; max-width: 214px; text-align: center;"><span class="nodeLabel markdown-node-label" style=""><p>+dataDirectory : str</p></span></div></foreignObject></g><g class="label" style="" transform="translate(0,36)"><foreignObject width="190.71875" height="24"><div xmlns="http://www.w3.org/1999/xhtml" style="display: table-cell; white-space: nowrap; line-height: 1.5; max-width: 244px; text-align: center;"><span class="nodeLabel markdown-node-label" style=""><p>+delayInSeconds : float</p></span></div></foreignObject></g></g><g class="methods-group text" transform="translate(-145.0625, 84)"/><g class="divider" style=""><path d="M-157.0625 -36 C-49.24579167662972 -36, 58.57091664674056 -36, 157.0625 -36 M-157.0625 -36 C-77.40603241768903 -36, 2.2504351646219334 -36, 157.0625 -36" stroke="#9370DB" stroke-width="1.3" fill="none" stroke-dasharray="0 0" style=""/></g><g class="divider" style=""><path d="M-157.0625 60 C-53.469867769377245 60, 50.12276446124551 60, 157.0625 60 M-157.0625 60 C-55.74731242508325 60, 45.5678751498335 60, 157.0625 60" stroke="#9370DB" stroke-width="1.3" fill="none" stroke-dasharray="0 0" style=""/></g></g><g class="node default" id="classId-KafkaConsumer-2" transform="translate(98.69921875, 337)"><g class="basic label-container"><path d="M-90.69921875 -87 L90.69921875 -87 L90.69921875 87 L-90.69921875 87" stroke="none" stroke-width="0" fill="#ECECFF" style=""/><path d="M-90.69921875 -87 C-32.21069431019859 -87, 26.27783012960282 -87, 90.69921875 -87 M-90.69921875 -87 C-34.49660607049282 -87, 21.706006609014366 -87, 90.69921875 -87 M90.69921875 -87 C90.69921875 -25.946617993071456, 90.69921875 35.10676401385709, 90.69921875 87 M90.69921875 -87 C90.69921875 -23.557633722509266, 90.69921875 39.88473255498147, 90.69921875 87 M90.69921875 87 C38.286414823164485 87, -14.12638910367103 87, -90.69921875 87 M90.69921875 87 C19.06104031997795 87, -52.5771381100441 87, -90.69921875 87 M-90.69921875 87 C-90.69921875 31.673293558360257, -90.69921875 -23.653412883279486, -90.69921875 -87 M-90.69921875 87 C-90.69921875 39.58139844561668, -90.69921875 -7.837203108766644, -90.69921875 -87" stroke="#9370DB" stroke-width="1.3" fill="none" stroke-dasharray="0 0" style=""/></g><g class="annotation-group text" transform="translate(0, -63)"/><g class="label-group text" transform="translate(-71.0234375, -63)"><g class="label" style="font-weight: bolder" transform="translate(0,-12)"><foreignObject width="142.046875" height="24"><div xmlns="http://www.w3.org/1999/xhtml" style="display: table-cell; white-space: nowrap; line-height: 1.5; max-width: 178px; text-align: center;"><span class="nodeLabel markdown-node-label" style=""><p>KafkaConsumer</p></span></div></foreignObject></g></g><g class="members-group text" transform="translate(-78.69921875, -15)"/><g class="methods-group text" transform="translate(-78.69921875, 15)"><g class="label" style="" transform="translate(0,-12)"><foreignObject width="54.734375" height="24"><div xmlns="http://www.w3.org/1999/xhtml" style="display: table-cell; white-space: nowrap; line-height: 1.5; max-width: 108px; text-align: center;"><span class="nodeLabel markdown-node-label" style=""><p>+poll()</p></span></div></foreignObject></g><g class="label" style="" transform="translate(0,12)"><foreignObject width="86.375" height="24"><div xmlns="http://www.w3.org/1999/xhtml" style="display: table-cell; white-space: nowrap; line-height: 1.5; max-width: 141px; text-align: center;"><span class="nodeLabel markdown-node-label" style=""><p>+commit()</p></span></div></foreignObject></g><g class="label" style="" transform="translate(0,36)"><foreignObject width="67.109375" height="24"><div xmlns="http://www.w3.org/1999/xhtml" style="display: table-cell; white-space: nowrap; line-height: 1.5; max-width: 121px; text-align: center;"><span class="nodeLabel markdown-node-label" style=""><p>+close()</p></span></div></foreignObject></g></g><g class="divider" style=""><path d="M-90.69921875 -39 C-30.551020685591645 -39, 29.59717737881671 -39, 90.69921875 -39 M-90.69921875 -39 C-26.221505105167367 -39, 38.256208539665266 -39, 90.69921875 -39" stroke="#9370DB" stroke-width="1.3" fill="none" stroke-dasharray="0 0" style=""/></g><g class="divider" style=""><path d="M-90.69921875 -15 C-43.85479290646154 -15, 2.9896329370769195 -15, 90.69921875 -15 M-90.69921875 -15 C-39.80396164305084 -15, 11.09129546389832 -15, 90.69921875 -15" stroke="#9370DB" stroke-width="1.3" fill="none" stroke-dasharray="0 0" style=""/></g></g><g class="node default" id="classId-writeToParquet-3" transform="translate(429.68359375, 337)"><g class="basic label-container"><path d="M-97.87109375 -72 L97.87109375 -72 L97.87109375 72 L-97.87109375 72" stroke="none" stroke-width="0" fill="#ECECFF" style=""/><path d="M-97.87109375 -72 C-38.51383272357876 -72, 20.843428302842483 -72, 97.87109375 -72 M-97.87109375 -72 C-32.28591722144766 -72, 33.29925930710468 -72, 97.87109375 -72 M97.87109375 -72 C97.87109375 -20.346577802777745, 97.87109375 31.30684439444451, 97.87109375 72 M97.87109375 -72 C97.87109375 -17.63319523886635, 97.87109375 36.7336095222673, 97.87109375 72 M97.87109375 72 C47.422602804412506 72, -3.0258881411749883 72, -97.87109375 72 M97.87109375 72 C42.607875142651814 72, -12.655343464696372 72, -97.87109375 72 M-97.87109375 72 C-97.87109375 34.800556525062895, -97.87109375 -2.3988869498742105, -97.87109375 -72 M-97.87109375 72 C-97.87109375 19.18093959933543, -97.87109375 -33.63812080132914, -97.87109375 -72" stroke="#9370DB" stroke-width="1.3" fill="none" stroke-dasharray="0 0" style=""/></g><g class="annotation-group text" transform="translate(0, -48)"/><g class="label-group text" transform="translate(-68.8828125, -48)"><g class="label" style="font-weight: bolder" transform="translate(0,-12)"><foreignObject width="137.765625" height="24"><div xmlns="http://www.w3.org/1999/xhtml" style="display: table-cell; white-space: nowrap; line-height: 1.5; max-width: 169px; text-align: center;"><span class="nodeLabel markdown-node-label" style=""><p>writeToParquet</p></span></div></foreignObject></g></g><g class="members-group text" transform="translate(-85.87109375, 0)"><g class="label" style="" transform="translate(0,-12)"><foreignObject width="102.859375" height="24"><div xmlns="http://www.w3.org/1999/xhtml" style="display: table-cell; white-space: nowrap; line-height: 1.5; max-width: 157px; text-align: center;"><span class="nodeLabel markdown-node-label" style=""><p>+parquetFile</p></span></div></foreignObject></g><g class="label" style="" transform="translate(0,12)"><foreignObject width="49.453125" height="24"><div xmlns="http://www.w3.org/1999/xhtml" style="display: table-cell; white-space: nowrap; line-height: 1.5; max-width: 104px; text-align: center;"><span class="nodeLabel markdown-node-label" style=""><p>+data</p></span></div></foreignObject></g></g><g class="methods-group text" transform="translate(-85.87109375, 72)"/><g class="divider" style=""><path d="M-97.87109375 -24 C-51.3209139077975 -24, -4.7707340655949935 -24, 97.87109375 -24 M-97.87109375 -24 C-30.4609119697475 -24, 36.949269810505 -24, 97.87109375 -24" stroke="#9370DB" stroke-width="1.3" fill="none" stroke-dasharray="0 0" style=""/></g><g class="divider" style=""><path d="M-97.87109375 48 C-53.29565387797482 48, -8.720214005949643 48, 97.87109375 48 M-97.87109375 48 C-26.870521912027073 48, 44.130049925945855 48, 97.87109375 48" stroke="#9370DB" stroke-width="1.3" fill="none" stroke-dasharray="0 0" style=""/></g></g><g class="node default" id="classId-appendToParquet-4" transform="translate(777.24609375, 337)"><g class="basic label-container"><path d="M-117.47265625 -72 L117.47265625 -72 L117.47265625 72 L-117.47265625 72" stroke="none" stroke-width="0" fill="#ECECFF" style=""/><path d="M-117.47265625 -72 C-66.41564871426982 -72, -15.358641178539656 -72, 117.47265625 -72 M-117.47265625 -72 C-30.85795990959022 -72, 55.75673643081956 -72, 117.47265625 -72 M117.47265625 -72 C117.47265625 -35.68403036922872, 117.47265625 0.6319392615425556, 117.47265625 72 M117.47265625 -72 C117.47265625 -17.833041620395775, 117.47265625 36.33391675920845, 117.47265625 72 M117.47265625 72 C63.89251851712925 72, 10.312380784258494 72, -117.47265625 72 M117.47265625 72 C43.57719201511517 72, -30.318272219769653 72, -117.47265625 72 M-117.47265625 72 C-117.47265625 43.127508951304854, -117.47265625 14.255017902609708, -117.47265625 -72 M-117.47265625 72 C-117.47265625 37.10022419356192, -117.47265625 2.200448387123842, -117.47265625 -72" stroke="#9370DB" stroke-width="1.3" fill="none" stroke-dasharray="0 0" style=""/></g><g class="annotation-group text" transform="translate(0, -48)"/><g class="label-group text" transform="translate(-79.2578125, -48)"><g class="label" style="font-weight: bolder" transform="translate(0,-12)"><foreignObject width="158.515625" height="24"><div xmlns="http://www.w3.org/1999/xhtml" style="display: table-cell; white-space: nowrap; line-height: 1.5; max-width: 189px; text-align: center;"><span class="nodeLabel markdown-node-label" style=""><p>appendToParquet</p></span></div></foreignObject></g></g><g class="members-group text" transform="translate(-105.47265625, 0)"><g class="label" style="" transform="translate(0,-12)"><foreignObject width="131.6875" height="24"><div xmlns="http://www.w3.org/1999/xhtml" style="display: table-cell; white-space: nowrap; line-height: 1.5; max-width: 186px; text-align: center;"><span class="nodeLabel markdown-node-label" style=""><p>+toBeAppended</p></span></div></foreignObject></g><g class="label" style="" transform="translate(0,12)"><foreignObject width="131.078125" height="24"><div xmlns="http://www.w3.org/1999/xhtml" style="display: table-cell; white-space: nowrap; line-height: 1.5; max-width: 184px; text-align: center;"><span class="nodeLabel markdown-node-label" style=""><p>+additionalData</p></span></div></foreignObject></g></g><g class="methods-group text" transform="translate(-105.47265625, 72)"/><g class="divider" style=""><path d="M-117.47265625 -24 C-38.686622718424914 -24, 40.09941081315017 -24, 117.47265625 -24 M-117.47265625 -24 C-33.611440779000745 -24, 50.24977469199851 -24, 117.47265625 -24" stroke="#9370DB" stroke-width="1.3" fill="none" stroke-dasharray="0 0" style=""/></g><g class="divider" style=""><path d="M-117.47265625 48 C-36.46970400958351 48, 44.53324823083298 48, 117.47265625 48 M-117.47265625 48 C-61.60335221570971 48, -5.734048181419425 48, 117.47265625 48" stroke="#9370DB" stroke-width="1.3" fill="none" stroke-dasharray="0 0" style=""/></g></g></g></g></g></svg>