<svg id="my-svg" width="100%" xmlns="http://www.w3.org/2000/svg" xmlns:xlink="http://www.w3.org/1999/xlink" class="classDiagram" style="max-width: 493.359px; background-color: transparent;" viewBox="0 0 493.359375 542" role="graphics-document document" aria-roledescription="class"><style>#my-svg{font-family:"trebuchet ms",verdana,arial,sans-serif;font-size:16px;fill:#333;}@keyframes edge-animation-frame{from{stroke-dashoffset:0;}}@keyframes dash{to{stroke-dashoffset:0;}}#my-svg .edge-animation-slow{stroke-dasharray:9,5!important;stroke-dashoffset:900;animation:dash 50s linear infinite;stroke-linecap:round;}#my-svg .edge-animation-fast{stroke-dasharray:9,5!important;stroke-dashoffset:900;animation:dash 20s linear infinite;stroke-linecap:round;}#my-svg .error-icon{fill:#552222;}#my-svg .error-text{fill:#552222;stroke:#552222;}#my-svg .edge-thickness-normal{stroke-width:1px;}#my-svg .edge-thickness-thick{stroke-width:3.5px;}#my-svg .edge-pattern-solid{stroke-dasharray:0;}#my-svg .edge-thickness-invisible{stroke-width:0;fill:none;}#my-svg .edge-pattern-dashed{stroke-dasharray:3;}#my-svg .edge-pattern-dotted{stroke-dasharray:2;}#my-svg .marker{fill:#333333;stroke:#333333;}#my-svg .marker.cross{stroke:#333333;}#my-svg svg{font-family:"trebuchet ms",verdana,arial,sans-serif;font-size:16px;}#my-svg p{margin:0;}#my-svg g.classGroup text{fill:#9370DB;stroke:none;font-family:"trebuchet ms",verdana,arial,sans-serif;font-size:10px;}#my-svg g.classGroup text .title{font-weight:bolder;}#my-svg .nodeLabel,#my-svg .edgeLabel{color:#131300;}#my-svg .edgeLabel .label rect{fill:#ECECFF;}#my-svg .label text{fill:#131300;}#my-svg .labelBkg{background:#ECECFF;}#my-svg .edgeLabel .label span{background:#ECECFF;}#my-svg .classTitle{font-weight:bolder;}#my-svg .node rect,#my-svg .node circle,#my-svg .node ellipse,#my-svg .node polygon,#my-svg .node path{fill:#ECECFF;stroke:#9370DB;stroke-width:1px;}#my-svg .divider{stroke:#9370DB;stroke-width:1;}#my-svg g.clickable{cursor:pointer;}#my-svg g.classGroup rect{fill:#ECECFF;stroke:#9370DB;}#my-svg g.classGroup line{stroke:#9370DB;stroke-width:1;}#my-svg .classLabel .box{stroke:none;stroke-width:0;fill:#ECECFF;opacity:0.5;}#my-svg .classLabel .label{fill:#9370DB;font-size:10px;}#my-svg .relation{stroke:#333333;stroke-width:1;fill:none;}#my-svg .dashed-line{stroke-dasharray:3;}#my-svg .dotted-line{stroke-dasharray:1 2;}#my-svg #compositionStart,#my-svg .composition{fill:#333333!important;stroke:#333333!important;stroke-width:1;}#my-svg #compositionEnd,#my-svg .composition{fill:#333333!important;stroke:#333333!important;stroke-width:1;}#my-svg #dependencyStart,#my-svg .dependency{fill:#333333!important;stroke:#333333!important;stroke-width:1;}#my-svg #dependencyStart,#my-svg .dependency{fill:#333333!important;stroke:#333333!important;stroke-width:1;}#my-svg #extensionStart,#my-svg .extension{fill:transparent!important;stroke:#333333!important;stroke-width:1;}#my-svg #extensionEnd,#my-svg .extension{fill:transparent!important;stroke:#333333!important;stroke-width:1;}#my-svg #aggregationStart,#my-svg .aggregation{fill:transparent!important;stroke:#333333!important;stroke-width:1;}#my-svg #aggregationEnd,#my-svg .aggregation{fill:transparent!important;stroke:#333333!important;stroke-width:1;}#my-svg #lollipopStart,#my-svg .lollipop{fill:#ECECFF!important;stroke:#333333!important;stroke-width:1;}#my-svg #lollipopEnd,#my-svg .lollipop{fill:#ECECFF!important;stroke:#333333!important;stroke-width:1;}#my-svg .edgeTerminals{font-size:11px;line-height:initial;}#my-svg .classTitleText{text-anchor:middle;font-size:18px;fill:#333;}#my-svg .label-icon{display:inline-block;height:1em;overflow:visible;vertical-align:-0.125em;}#my-svg .node .label-icon path{fill:currentColor;stroke:revert;stroke-width:revert;}#my-svg :root{--mermaid-font-family:"trebuchet ms",verdana,arial,sans-serif;}</style><g><defs><marker id="my-svg_class-aggregationStart" class="marker aggregation class" refX="18" refY="7" markerWidth="190" markerHeight="240" orient="auto"><path d="M 18,7 L9,13 L1,7 L9,1 Z"/></marker></defs><defs><marker id="my-svg_class-aggregationEnd" class="marker aggregation class" refX="1" refY="7" markerWidth="20" markerHeight="28" orient="auto"><path d="M 18,7 L9,13 L1,7 L9,1 Z"/></marker></defs><defs><marker id="my-svg_class-extensionStart" class="marker extension class" refX="18" refY="7" markerWidth="190" markerHeight="240" orient="auto"><path d="M 1,7 L18,13 V 1 Z"/></marker></defs><defs><marker id="my-svg_class-extensionEnd" class="marker extension class" refX="1" refY="7" markerWidth="20" markerHeight="28" orient="auto"><path d="M 1,1 V 13 L18,7 Z"/></marker></defs><defs><marker id="my-svg_class-compositionStart" class="marker composition class" refX="18" refY="7" markerWidth="190" markerHeight="240" orient="auto"><path d="M 18,7 L9,13 L1,7 L9,1 Z"/></marker></defs><defs><marker id="my-svg_class-compositionEnd" class="marker composition class" refX="1" refY="7" markerWidth="20" markerHeight="28" orient="auto"><path d="M 18,7 L9,13 L1,7 L9,1 Z"/></marker></defs><defs><marker id="my-svg_class-dependencyStart" class="marker dependency class" refX="6" refY="7" markerWidth="190" markerHeight="240" orient="auto"><path d="M 5,7 L9,13 L1,7 L9,1 Z"/></marker></defs><defs><marker id="my-svg_class-dependencyEnd" class="marker dependency class" refX="13" refY="7" markerWidth="20" markerHeight="28" orient="auto"><path d="M 18,7 L9,13 L14,7 L9,1 Z"/></marker></defs><defs><marker id="my-svg_class-lollipopStart" class="marker lollipop class" refX="13" refY="7" markerWidth="190" markerHeight="240" orient="auto"><circle stroke="black" fill="transparent" cx="7" cy="7" r="6"/></marker></defs><defs><marker id="my-svg_class-lollipopEnd" class="marker lollipop class" refX="1" refY="7" markerWidth="190" markerHeight="240" orient="auto"><circle stroke="black" fill="transparent" cx="7" cy="7" r="6"/></marker></defs><g class="root"><g class="clusters"/><g class="edgePaths"><path d="M246.68,44L246.68,48.167C246.68,52.333,246.68,60.667,246.68,69C246.68,77.333,246.68,85.667,246.68,89.833L246.68,94" id="edgeNote1" class="edge-thickness-normal edge-pattern-dotted relation" style="fill: none;;;fill: none" data-edge="true" data-et="edge" data-id="edgeNote1" data-points="W3sieCI6MjQ2LjY3OTY4NzUsInkiOjQ0fSx7IngiOjI0Ni42Nzk2ODc1LCJ5Ijo2OX0seyJ4IjoyNDYuNjc5Njg3NSwieSI6OTR9XQ=="/><path d="M246.68,310L246.68,316.167C246.68,322.333,246.68,334.667,246.68,346C246.68,357.333,246.68,367.667,246.68,372.833L246.68,378" id="id_flowManagerHome_requests_1" class="edge-thickness-normal edge-pattern-solid relation" style=";;;" data-edge="true" data-et="edge" data-id="id_flowManagerHome_requests_1" data-points="W3sieCI6MjQ2LjY3OTY4NzUsInkiOjMxMH0seyJ4IjoyNDYuNjc5Njg3NSwieSI6MzQ3fSx7IngiOjI0Ni42Nzk2ODc1LCJ5IjozODR9XQ==" marker-end="url(#my-svg_class-dependencyEnd)"/></g><g class="edgeLabels"><g class="edgeLabel"><g class="label" data-id="edgeNote1" transform="translate(0, 0)"><foreignObject width="0" height="0"><div xmlns="http://www.w3.org/1999/xhtml" class="labelBkg" style="display: table-cell; white-space: nowrap; line-height: 1.5; max-width: 200px; text-align: center;"><span class="edgeLabel"></span></div></foreignObject></g></g><g class="edgeLabel" transform="translate(246.6796875, 347)"><g class="label" data-id="id_flowManagerHome_requests_1" transform="translate(-39.15625, -12)"><foreignObject width="78.3125" height="24"><div xmlns="http://www.w3.org/1999/xhtml" class="labelBkg" style="display: table-cell; white-space: nowrap; line-height: 1.5; max-width: 200px; text-align: center;"><span class="edgeLabel"><p>HTTP GET</p></span></div></foreignObject></g></g></g><g class="nodes"><g class="node default" id="classId-flowManagerHome-0" transform="translate(246.6796875, 202)"><g class="basic label-container"><path d="M-184.59765625 -108 L184.59765625 -108 L184.59765625 108 L-184.59765625 108" stroke="none" stroke-width="0" fill="#ECECFF" style=""/><path d="M-184.59765625 -108 C-89.03083276150016 -108, 6.535990726999671 -108, 184.59765625 -108 M-184.59765625 -108 C-74.7752151417229 -108, 35.04722596655421 -108, 184.59765625 -108 M184.59765625 -108 C184.59765625 -51.41332563926353, 184.59765625 5.173348721472934, 184.59765625 108 M184.59765625 -108 C184.59765625 -56.18138012674464, 184.59765625 -4.362760253489284, 184.59765625 108 M184.59765625 108 C85.04287802014635 108, -14.511900209707306 108, -184.59765625 108 M184.59765625 108 C38.46874840383276 108, -107.66015944233447 108, -184.59765625 108 M-184.59765625 108 C-184.59765625 28.4179220693689, -184.59765625 -51.1641558612622, -184.59765625 -108 M-184.59765625 108 C-184.59765625 23.67274324526079, -184.59765625 -60.65451350947842, -184.59765625 -108" stroke="#9370DB" stroke-width="1.3" fill="none" stroke-dasharray="0 0" style=""/></g><g class="annotation-group text" transform="translate(0, -84)"/><g class="label-group text" transform="translate(-84.3203125, -84)"><g class="label" style="font-weight: bolder" transform="translate(0,-12)"><foreignObject width="168.640625" height="24"><div xmlns="http://www.w3.org/1999/xhtml" style="display: table-cell; white-space: nowrap; line-height: 1.5; max-width: 202px; text-align: center;"><span class="nodeLabel markdown-node-label" style=""><p>flowManagerHome</p></span></div></foreignObject></g></g><g class="members-group text" transform="translate(-172.59765625, -36)"><g class="label" style="" transform="translate(0,-12)"><foreignObject width="169.15625" height="24"><div xmlns="http://www.w3.org/1999/xhtml" style="display: table-cell; white-space: nowrap; line-height: 1.5; max-width: 225px; text-align: center;"><span class="nodeLabel markdown-node-label" style=""><p>-_noderedServer : str</p></span></div></foreignObject></g><g class="label" style="" transform="translate(0,12)"><foreignObject width="148.078125" height="24"><div xmlns="http://www.w3.org/1999/xhtml" style="display: table-cell; white-space: nowrap; line-height: 1.5; max-width: 203px; text-align: center;"><span class="nodeLabel markdown-node-label" style=""><p>-_noderedPort : int</p></span></div></foreignObject></g></g><g class="methods-group text" transform="translate(-172.59765625, 36)"><g class="label" style="" transform="translate(0,-12)"><foreignObject width="178.703125" height="24"><div xmlns="http://www.w3.org/1999/xhtml" style="display: table-cell; white-space: nowrap; line-height: 1.5; max-width: 261px; text-align: center;"><span class="nodeLabel markdown-node-label" style=""><p>+<strong>init</strong>(nodeRedServer)</p></span></div></foreignObject></g><g class="label" style="" transform="translate(0,12)"><foreignObject width="260.875" height="24"><div xmlns="http://www.w3.org/1999/xhtml" style="display: table-cell; white-space: nowrap; line-height: 1.5; max-width: 312px; text-align: center;"><span class="nodeLabel markdown-node-label" style=""><p>+getConnectionString(task) : str</p></span></div></foreignObject></g><g class="label" style="" transform="translate(0,36)"><foreignObject width="142.265625" height="24"><div xmlns="http://www.w3.org/1999/xhtml" style="display: table-cell; white-space: nowrap; line-height: 1.5; max-width: 194px; text-align: center;"><span class="nodeLabel markdown-node-label" style=""><p>+getFlows() : dict</p></span></div></foreignObject></g></g><g class="divider" style=""><path d="M-184.59765625 -60 C-87.54475402515929 -60, 9.508148199681415 -60, 184.59765625 -60 M-184.59765625 -60 C-77.5391281493358 -60, 29.51939995132841 -60, 184.59765625 -60" stroke="#9370DB" stroke-width="1.3" fill="none" stroke-dasharray="0 0" style=""/></g><g class="divider" style=""><path d="M-184.59765625 12 C-94.81630252825127 12, -5.034948806502541 12, 184.59765625 12 M-184.59765625 12 C-60.95891613364722 12, 62.67982398270556 12, 184.59765625 12" stroke="#9370DB" stroke-width="1.3" fill="none" stroke-dasharray="0 0" style=""/></g></g><g class="node default" id="classId-requests-1" transform="translate(246.6796875, 459)"><g class="basic label-container"><path d="M-116.22265625 -75 L116.22265625 -75 L116.22265625 75 L-116.22265625 75" stroke="none" stroke-width="0" fill="#ECECFF" style=""/><path d="M-116.22265625 -75 C-35.79548396111329 -75, 44.63168832777342 -75, 116.22265625 -75 M-116.22265625 -75 C-33.961751046789175 -75, 48.29915415642165 -75, 116.22265625 -75 M116.22265625 -75 C116.22265625 -31.27746292604855, 116.22265625 12.4450741479029, 116.22265625 75 M116.22265625 -75 C116.22265625 -37.55770302328691, 116.22265625 -0.11540604657382403, 116.22265625 75 M116.22265625 75 C25.79906189728659 75, -64.62453245542682 75, -116.22265625 75 M116.22265625 75 C49.558052535624554 75, -17.10655117875089 75, -116.22265625 75 M-116.22265625 75 C-116.22265625 28.79983730567504, -116.22265625 -17.400325388649918, -116.22265625 -75 M-116.22265625 75 C-116.22265625 15.040260444448492, -116.22265625 -44.919479111103016, -116.22265625 -75" stroke="#9370DB" stroke-width="1.3" fill="none" stroke-dasharray="0 0" style=""/></g><g class="annotation-group text" transform="translate(-42.7109375, -51)"><g class="label" style="" transform="translate(0,-12)"><foreignObject width="85.421875" height="24"><div xmlns="http://www.w3.org/1999/xhtml" style="display: table-cell; white-space: nowrap; line-height: 1.5; max-width: 136px; text-align: center;"><span class="nodeLabel markdown-node-label" style=""><p>«external»</p></span></div></foreignObject></g></g><g class="label-group text" transform="translate(-39.5703125, -27)"><g class="label" style="font-weight: bolder" transform="translate(0,-12)"><foreignObject width="79.140625" height="24"><div xmlns="http://www.w3.org/1999/xhtml" style="display: table-cell; white-space: nowrap; line-height: 1.5; max-width: 119px; text-align: center;"><span class="nodeLabel markdown-node-label" style=""><p>requests</p></span></div></foreignObject></g></g><g class="members-group text" transform="translate(-104.22265625, 21)"/><g class="methods-group text" transform="translate(-104.22265625, 51)"><g class="label" style="" transform="translate(0,-12)"><foreignObject width="165.734375" height="24"><div xmlns="http://www.w3.org/1999/xhtml" style="display: table-cell; white-space: nowrap; line-height: 1.5; max-width: 218px; text-align: center;"><span class="nodeLabel markdown-node-label" style=""><p>+get(url) : Response</p></span></div></foreignObject></g></g><g class="divider" style=""><path d="M-116.22265625 -3 C-29.563971353851173 -3, 57.094713542297654 -3, 116.22265625 -3 M-116.22265625 -3 C-46.60390763142482 -3, 23.014840987150365 -3, 116.22265625 -3" stroke="#9370DB" stroke-width="1.3" fill="none" stroke-dasharray="0 0" style=""/></g><g class="divider" style=""><path d="M-116.22265625 21 C-56.29150649486383 21, 3.6396432602723365 21, 116.22265625 21 M-116.22265625 21 C-29.556294618504495 21, 57.11006701299101 21, 116.22265625 21" stroke="#9370DB" stroke-width="1.3" fill="none" stroke-dasharray="0 0" style=""/></g></g><g class="node undefined" id="note0" transform="translate(246.6796875, 26)"><g class="basic label-container"><path d="M-238.6796875 -18 L238.6796875 -18 L238.6796875 18 L-238.6796875 18" stroke="none" stroke-width="0" fill="#fff5ad" style="fill:#fff5ad !important;stroke:#aaaa33 !important"/><path d="M-238.6796875 -18 C-77.87185230287741 -18, 82.93598289424517 -18, 238.6796875 -18 M-238.6796875 -18 C-82.3841491209395 -18, 73.911389258121 -18, 238.6796875 -18 M238.6796875 -18 C238.6796875 -8.321103555936311, 238.6796875 1.3577928881273778, 238.6796875 18 M238.6796875 -18 C238.6796875 -5.61310405154263, 238.6796875 6.773791896914741, 238.6796875 18 M238.6796875 18 C99.02746005449171 18, -40.624767391016576 18, -238.6796875 18 M238.6796875 18 C94.63586575910628 18, -49.40795598178744 18, -238.6796875 18 M-238.6796875 18 C-238.6796875 9.010751194091272, -238.6796875 0.021502388182543797, -238.6796875 -18 M-238.6796875 18 C-238.6796875 4.554613585647868, -238.6796875 -8.890772828704264, -238.6796875 -18" stroke="#aaaa33" stroke-width="1.3" fill="none" stroke-dasharray="0 0" style="fill:#fff5ad !important;stroke:#aaaa33 !important"/></g><g class="label" style="text-align:left !important;white-space:nowrap !important" transform="translate(-232.6796875, -12)"><rect/><foreignObject width="465.359375" height="24"><div style="text-align: center; white-space: break-spaces; display: table; line-height: 1.5; max-width: 200px; width: 200px;" xmlns="http://www.w3.org/1999/xhtml"><span style="text-align:left !important;white-space:nowrap !important" class="nodeLabel"><p>Connects to Node-RED REST API\nDefault: 127.0.0.1:1880</p></span></div></foreignObject></g></g></g></g></g></svg>