<svg id="my-svg" width="100%" xmlns="http://www.w3.org/2000/svg" xmlns:xlink="http://www.w3.org/1999/xlink" class="classDiagram" style="max-width: 705.93px; background-color: transparent;" viewBox="0 0 705.9296875 1066" role="graphics-document document" aria-roledescription="class"><style>#my-svg{font-family:"trebuchet ms",verdana,arial,sans-serif;font-size:16px;fill:#333;}@keyframes edge-animation-frame{from{stroke-dashoffset:0;}}@keyframes dash{to{stroke-dashoffset:0;}}#my-svg .edge-animation-slow{stroke-dasharray:9,5!important;stroke-dashoffset:900;animation:dash 50s linear infinite;stroke-linecap:round;}#my-svg .edge-animation-fast{stroke-dasharray:9,5!important;stroke-dashoffset:900;animation:dash 20s linear infinite;stroke-linecap:round;}#my-svg .error-icon{fill:#552222;}#my-svg .error-text{fill:#552222;stroke:#552222;}#my-svg .edge-thickness-normal{stroke-width:1px;}#my-svg .edge-thickness-thick{stroke-width:3.5px;}#my-svg .edge-pattern-solid{stroke-dasharray:0;}#my-svg .edge-thickness-invisible{stroke-width:0;fill:none;}#my-svg .edge-pattern-dashed{stroke-dasharray:3;}#my-svg .edge-pattern-dotted{stroke-dasharray:2;}#my-svg .marker{fill:#333333;stroke:#333333;}#my-svg .marker.cross{stroke:#333333;}#my-svg svg{font-family:"trebuchet ms",verdana,arial,sans-serif;font-size:16px;}#my-svg p{margin:0;}#my-svg g.classGroup text{fill:#9370DB;stroke:none;font-family:"trebuchet ms",verdana,arial,sans-serif;font-size:10px;}#my-svg g.classGroup text .title{font-weight:bolder;}#my-svg .nodeLabel,#my-svg .edgeLabel{color:#131300;}#my-svg .edgeLabel .label rect{fill:#ECECFF;}#my-svg .label text{fill:#131300;}#my-svg .labelBkg{background:#ECECFF;}#my-svg .edgeLabel .label span{background:#ECECFF;}#my-svg .classTitle{font-weight:bolder;}#my-svg .node rect,#my-svg .node circle,#my-svg .node ellipse,#my-svg .node polygon,#my-svg .node path{fill:#ECECFF;stroke:#9370DB;stroke-width:1px;}#my-svg .divider{stroke:#9370DB;stroke-width:1;}#my-svg g.clickable{cursor:pointer;}#my-svg g.classGroup rect{fill:#ECECFF;stroke:#9370DB;}#my-svg g.classGroup line{stroke:#9370DB;stroke-width:1;}#my-svg .classLabel .box{stroke:none;stroke-width:0;fill:#ECECFF;opacity:0.5;}#my-svg .classLabel .label{fill:#9370DB;font-size:10px;}#my-svg .relation{stroke:#333333;stroke-width:1;fill:none;}#my-svg .dashed-line{stroke-dasharray:3;}#my-svg .dotted-line{stroke-dasharray:1 2;}#my-svg #compositionStart,#my-svg .composition{fill:#333333!important;stroke:#333333!important;stroke-width:1;}#my-svg #compositionEnd,#my-svg .composition{fill:#333333!important;stroke:#333333!important;stroke-width:1;}#my-svg #dependencyStart,#my-svg .dependency{fill:#333333!important;stroke:#333333!important;stroke-width:1;}#my-svg #dependencyStart,#my-svg .dependency{fill:#333333!important;stroke:#333333!important;stroke-width:1;}#my-svg #extensionStart,#my-svg .extension{fill:transparent!important;stroke:#333333!important;stroke-width:1;}#my-svg #extensionEnd,#my-svg .extension{fill:transparent!important;stroke:#333333!important;stroke-width:1;}#my-svg #aggregationStart,#my-svg .aggregation{fill:transparent!important;stroke:#333333!important;stroke-width:1;}#my-svg #aggregationEnd,#my-svg .aggregation{fill:transparent!important;stroke:#333333!important;stroke-width:1;}#my-svg #lollipopStart,#my-svg .lollipop{fill:#ECECFF!important;stroke:#333333!important;stroke-width:1;}#my-svg #lollipopEnd,#my-svg .lollipop{fill:#ECECFF!important;stroke:#333333!important;stroke-width:1;}#my-svg .edgeTerminals{font-size:11px;line-height:initial;}#my-svg .classTitleText{text-anchor:middle;font-size:18px;fill:#333;}#my-svg .label-icon{display:inline-block;height:1em;overflow:visible;vertical-align:-0.125em;}#my-svg .node .label-icon path{fill:currentColor;stroke:revert;stroke-width:revert;}#my-svg :root{--mermaid-font-family:"trebuchet ms",verdana,arial,sans-serif;}</style><g><defs><marker id="my-svg_class-aggregationStart" class="marker aggregation class" refX="18" refY="7" markerWidth="190" markerHeight="240" orient="auto"><path d="M 18,7 L9,13 L1,7 L9,1 Z"/></marker></defs><defs><marker id="my-svg_class-aggregationEnd" class="marker aggregation class" refX="1" refY="7" markerWidth="20" markerHeight="28" orient="auto"><path d="M 18,7 L9,13 L1,7 L9,1 Z"/></marker></defs><defs><marker id="my-svg_class-extensionStart" class="marker extension class" refX="18" refY="7" markerWidth="190" markerHeight="240" orient="auto"><path d="M 1,7 L18,13 V 1 Z"/></marker></defs><defs><marker id="my-svg_class-extensionEnd" class="marker extension class" refX="1" refY="7" markerWidth="20" markerHeight="28" orient="auto"><path d="M 1,1 V 13 L18,7 Z"/></marker></defs><defs><marker id="my-svg_class-compositionStart" class="marker composition class" refX="18" refY="7" markerWidth="190" markerHeight="240" orient="auto"><path d="M 18,7 L9,13 L1,7 L9,1 Z"/></marker></defs><defs><marker id="my-svg_class-compositionEnd" class="marker composition class" refX="1" refY="7" markerWidth="20" markerHeight="28" orient="auto"><path d="M 18,7 L9,13 L1,7 L9,1 Z"/></marker></defs><defs><marker id="my-svg_class-dependencyStart" class="marker dependency class" refX="6" refY="7" markerWidth="190" markerHeight="240" orient="auto"><path d="M 5,7 L9,13 L1,7 L9,1 Z"/></marker></defs><defs><marker id="my-svg_class-dependencyEnd" class="marker dependency class" refX="13" refY="7" markerWidth="20" markerHeight="28" orient="auto"><path d="M 18,7 L9,13 L14,7 L9,1 Z"/></marker></defs><defs><marker id="my-svg_class-lollipopStart" class="marker lollipop class" refX="13" refY="7" markerWidth="190" markerHeight="240" orient="auto"><circle stroke="black" fill="transparent" cx="7" cy="7" r="6"/></marker></defs><defs><marker id="my-svg_class-lollipopEnd" class="marker lollipop class" refX="1" refY="7" markerWidth="190" markerHeight="240" orient="auto"><circle stroke="black" fill="transparent" cx="7" cy="7" r="6"/></marker></defs><g class="root"><g class="clusters"/><g class="edgePaths"><path d="M428.241,89.031L448.317,97.692C468.392,106.354,508.544,123.677,528.62,136.505C548.695,149.333,548.695,157.667,548.695,161.833L548.695,166" id="id_dict_TrialSet_1" class="edge-thickness-normal edge-pattern-solid relation" style=";;;" data-edge="true" data-et="edge" data-id="id_dict_TrialSet_1" data-points="W3sieCI6NDEyLjQwMjM0Mzc1LCJ5Ijo4Mi4xOTcwMzQ2NjY2NjY2N30seyJ4Ijo1NDguNjk1MzEyNSwieSI6MTQxfSx7IngiOjU0OC42OTUzMTI1LCJ5IjoxNjZ9XQ==" marker-start="url(#my-svg_class-extensionStart)"/><path d="M302.939,89.031L282.863,97.692C262.787,106.354,222.636,123.677,202.56,156.505C182.484,189.333,182.484,237.667,182.484,288C182.484,338.333,182.484,390.667,182.484,423C182.484,455.333,182.484,467.667,182.484,473.833L182.484,480" id="id_dict_EntityType_2" class="edge-thickness-normal edge-pattern-solid relation" style=";;;" data-edge="true" data-et="edge" data-id="id_dict_EntityType_2" data-points="W3sieCI6MzE4Ljc3NzM0Mzc1LCJ5Ijo4Mi4xOTcwMzQ2NjY2NjY2N30seyJ4IjoxODIuNDg0Mzc1LCJ5IjoxNDF9LHsieCI6MTgyLjQ4NDM3NSwieSI6Mjg2fSx7IngiOjE4Mi40ODQzNzUsInkiOjQ0M30seyJ4IjoxODIuNDg0Mzc1LCJ5Ijo0ODB9XQ==" marker-start="url(#my-svg_class-extensionStart)"/><path d="M548.695,423.25L548.695,426.542C548.695,429.833,548.695,436.417,548.695,447.875C548.695,459.333,548.695,475.667,548.695,483.833L548.695,492" id="id_TrialSet_Trial_3" class="edge-thickness-normal edge-pattern-solid relation" style=";;;" data-edge="true" data-et="edge" data-id="id_TrialSet_Trial_3" data-points="W3sieCI6NTQ4LjY5NTMxMjUsInkiOjQwNn0seyJ4Ijo1NDguNjk1MzEyNSwieSI6NDQzfSx7IngiOjU0OC42OTUzMTI1LCJ5Ijo0OTJ9XQ==" marker-start="url(#my-svg_class-compositionStart)"/><path d="M182.484,761.25L182.484,764.542C182.484,767.833,182.484,774.417,189.676,783.875C196.868,793.333,211.253,805.667,218.445,811.833L225.637,818" id="id_EntityType_Entity_4" class="edge-thickness-normal edge-pattern-solid relation" style=";;;" data-edge="true" data-et="edge" data-id="id_EntityType_Entity_4" data-points="W3sieCI6MTgyLjQ4NDM3NSwieSI6NzQ0fSx7IngiOjE4Mi40ODQzNzUsInkiOjc4MX0seyJ4IjoyMjUuNjM2NjE5MjI3NzA3LCJ5Ijo4MTh9XQ==" marker-start="url(#my-svg_class-compositionStart)"/><path d="M548.695,732L548.695,740.167C548.695,748.333,548.695,764.667,542.262,778.349C535.83,792.031,522.964,803.063,516.531,808.579L510.098,814.094" id="id_Trial_Entity_5" class="edge-thickness-normal edge-pattern-dashed relation" style=";;;" data-edge="true" data-et="edge" data-id="id_Trial_Entity_5" data-points="W3sieCI6NTQ4LjY5NTMxMjUsInkiOjczMn0seyJ4Ijo1NDguNjk1MzEyNSwieSI6NzgxfSx7IngiOjUwNS41NDMwNjgyNzIyOTMsInkiOjgxOH1d" marker-end="url(#my-svg_class-dependencyEnd)"/></g><g class="edgeLabels"><g class="edgeLabel"><g class="label" data-id="id_dict_TrialSet_1" transform="translate(0, 0)"><foreignObject width="0" height="0"><div xmlns="http://www.w3.org/1999/xhtml" class="labelBkg" style="display: table-cell; white-space: nowrap; line-height: 1.5; max-width: 200px; text-align: center;"><span class="edgeLabel"></span></div></foreignObject></g></g><g class="edgeLabel"><g class="label" data-id="id_dict_EntityType_2" transform="translate(0, 0)"><foreignObject width="0" height="0"><div xmlns="http://www.w3.org/1999/xhtml" class="labelBkg" style="display: table-cell; white-space: nowrap; line-height: 1.5; max-width: 200px; text-align: center;"><span class="edgeLabel"></span></div></foreignObject></g></g><g class="edgeLabel" transform="translate(548.6953125, 443)"><g class="label" data-id="id_TrialSet_Trial_3" transform="translate(-33.8671875, -12)"><foreignObject width="67.734375" height="24"><div xmlns="http://www.w3.org/1999/xhtml" class="labelBkg" style="display: table-cell; white-space: nowrap; line-height: 1.5; max-width: 200px; text-align: center;"><span class="edgeLabel"><p>contains</p></span></div></foreignObject></g></g><g class="edgeLabel" transform="translate(182.484375, 781)"><g class="label" data-id="id_EntityType_Entity_4" transform="translate(-33.8671875, -12)"><foreignObject width="67.734375" height="24"><div xmlns="http://www.w3.org/1999/xhtml" class="labelBkg" style="display: table-cell; white-space: nowrap; line-height: 1.5; max-width: 200px; text-align: center;"><span class="edgeLabel"><p>contains</p></span></div></foreignObject></g></g><g class="edgeLabel" transform="translate(548.6953125, 781)"><g class="label" data-id="id_Trial_Entity_5" transform="translate(-89.1171875, -12)"><foreignObject width="178.234375" height="24"><div xmlns="http://www.w3.org/1999/xhtml" class="labelBkg" style="display: table-cell; white-space: nowrap; line-height: 1.5; max-width: 200px; text-align: center;"><span class="edgeLabel"><p>references via entities</p></span></div></foreignObject></g></g><g class="edgeTerminals" transform="translate(533.69531125, 423.4999989285714)"><g class="inner" transform="translate(0, 0)"><foreignObject style="width: 9px; height: 12px;"><div xmlns="http://www.w3.org/1999/xhtml" style="display: inline-block; padding-right: 1px; white-space: nowrap;"><span class="edgeLabel">1</span></div></foreignObject></g></g><g class="edgeTerminals" transform="translate(167.48437750000014, 761.5000021428572)"><g class="inner" transform="translate(0, 0)"><foreignObject style="width: 9px; height: 12px;"><div xmlns="http://www.w3.org/1999/xhtml" style="display: inline-block; padding-right: 1px; white-space: nowrap;"><span class="edgeLabel">1</span></div></foreignObject></g></g><g class="edgeTerminals" transform="translate(558.69531125, 469.4999989285714)"><g class="inner" transform="translate(0, 0)"/><foreignObject style="width: 9px; height: 12px;"><div xmlns="http://www.w3.org/1999/xhtml" style="display: inline-block; padding-right: 1px; white-space: nowrap;"><span class="edgeLabel">*</span></div></foreignObject></g><g class="edgeTerminals" transform="translate(217.1152617752732, 790.2217189995312)"><g class="inner" transform="translate(0, 0)"/><foreignObject style="width: 9px; height: 12px;"><div xmlns="http://www.w3.org/1999/xhtml" style="display: inline-block; padding-right: 1px; white-space: nowrap;"><span class="edgeLabel">*</span></div></foreignObject></g></g><g class="nodes"><g class="node default" id="classId-dict-0" transform="translate(365.58984375, 62)"><g class="basic label-container"><path d="M-46.8125 -54 L46.8125 -54 L46.8125 54 L-46.8125 54" stroke="none" stroke-width="0" fill="#ECECFF" style=""/><path d="M-46.8125 -54 C-9.899854732707546 -54, 27.01279053458491 -54, 46.8125 -54 M-46.8125 -54 C-21.773077103057034 -54, 3.2663457938859324 -54, 46.8125 -54 M46.8125 -54 C46.8125 -13.954012825000063, 46.8125 26.091974349999873, 46.8125 54 M46.8125 -54 C46.8125 -18.13370664806373, 46.8125 17.732586703872542, 46.8125 54 M46.8125 54 C14.31465117534843 54, -18.18319764930314 54, -46.8125 54 M46.8125 54 C26.362740515932376 54, 5.912981031864753 54, -46.8125 54 M-46.8125 54 C-46.8125 20.58308903786356, -46.8125 -12.833821924272883, -46.8125 -54 M-46.8125 54 C-46.8125 17.93197907511523, -46.8125 -18.13604184976954, -46.8125 -54" stroke="#9370DB" stroke-width="1.3" fill="none" stroke-dasharray="0 0" style=""/></g><g class="annotation-group text" transform="translate(-34.8125, -30)"><g class="label" style="" transform="translate(0,-12)"><foreignObject width="69.625" height="24"><div xmlns="http://www.w3.org/1999/xhtml" style="display: table-cell; white-space: nowrap; line-height: 1.5; max-width: 118px; text-align: center;"><span class="nodeLabel markdown-node-label" style=""><p>«builtin»</p></span></div></foreignObject></g></g><g class="label-group text" transform="translate(-17.0390625, -6)"><g class="label" style="font-weight: bolder" transform="translate(0,-12)"><foreignObject width="34.078125" height="24"><div xmlns="http://www.w3.org/1999/xhtml" style="display: table-cell; white-space: nowrap; line-height: 1.5; max-width: 79px; text-align: center;"><span class="nodeLabel markdown-node-label" style=""><p>dict</p></span></div></foreignObject></g></g><g class="members-group text" transform="translate(-34.8125, 42)"/><g class="methods-group text" transform="translate(-34.8125, 72)"/><g class="divider" style=""><path d="M-46.8125 18 C-22.386589653374788 18, 2.039320693250424 18, 46.8125 18 M-46.8125 18 C-20.5287457307241 18, 5.755008538551799 18, 46.8125 18" stroke="#9370DB" stroke-width="1.3" fill="none" stroke-dasharray="0 0" style=""/></g><g class="divider" style=""><path d="M-46.8125 36 C-22.26775151042344 36, 2.276996979153118 36, 46.8125 36 M-46.8125 36 C-27.32638943462587 36, -7.8402788692517404 36, 46.8125 36" stroke="#9370DB" stroke-width="1.3" fill="none" stroke-dasharray="0 0" style=""/></g></g><g class="node default" id="classId-TrialSet-1" transform="translate(548.6953125, 286)"><g class="basic label-container"><path d="M-149.234375 -120 L149.234375 -120 L149.234375 120 L-149.234375 120" stroke="none" stroke-width="0" fill="#ECECFF" style=""/><path d="M-149.234375 -120 C-69.73009563339424 -120, 9.774183733211515 -120, 149.234375 -120 M-149.234375 -120 C-33.95781496662502 -120, 81.31874506674995 -120, 149.234375 -120 M149.234375 -120 C149.234375 -64.06892154844166, 149.234375 -8.137843096883316, 149.234375 120 M149.234375 -120 C149.234375 -46.73936951790709, 149.234375 26.521260964185814, 149.234375 120 M149.234375 120 C57.910795892025305 120, -33.41278321594939 120, -149.234375 120 M149.234375 120 C55.86283629719618 120, -37.508702405607636 120, -149.234375 120 M-149.234375 120 C-149.234375 43.26324378491631, -149.234375 -33.473512430167375, -149.234375 -120 M-149.234375 120 C-149.234375 28.291887799219012, -149.234375 -63.416224401561976, -149.234375 -120" stroke="#9370DB" stroke-width="1.3" fill="none" stroke-dasharray="0 0" style=""/></g><g class="annotation-group text" transform="translate(0, -96)"/><g class="label-group text" transform="translate(-34.421875, -96)"><g class="label" style="font-weight: bolder" transform="translate(0,-12)"><foreignObject width="68.84375" height="24"><div xmlns="http://www.w3.org/1999/xhtml" style="display: table-cell; white-space: nowrap; line-height: 1.5; max-width: 110px; text-align: center;"><span class="nodeLabel markdown-node-label" style=""><p>TrialSet</p></span></div></foreignObject></g></g><g class="members-group text" transform="translate(-137.234375, -48)"><g class="label" style="" transform="translate(0,-12)"><foreignObject width="95.53125" height="24"><div xmlns="http://www.w3.org/1999/xhtml" style="display: table-cell; white-space: nowrap; line-height: 1.5; max-width: 150px; text-align: center;"><span class="nodeLabel markdown-node-label" style=""><p>+name : str</p></span></div></foreignObject></g><g class="label" style="" transform="translate(0,12)"><foreignObject width="213.3125" height="24"><div xmlns="http://www.w3.org/1999/xhtml" style="display: table-cell; white-space: nowrap; line-height: 1.5; max-width: 267px; text-align: center;"><span class="nodeLabel markdown-node-label" style=""><p>+experiment : Experiment</p></span></div></foreignObject></g><g class="label" style="" transform="translate(0,36)"><foreignObject width="134.125" height="24"><div xmlns="http://www.w3.org/1999/xhtml" style="display: table-cell; white-space: nowrap; line-height: 1.5; max-width: 187px; text-align: center;"><span class="nodeLabel markdown-node-label" style=""><p>+properties : list</p></span></div></foreignObject></g><g class="label" style="" transform="translate(0,60)"><foreignObject width="240.046875" height="24"><div xmlns="http://www.w3.org/1999/xhtml" style="display: table-cell; white-space: nowrap; line-height: 1.5; max-width: 295px; text-align: center;"><span class="nodeLabel markdown-node-label" style=""><p>+propertiesTable : DataFrame</p></span></div></foreignObject></g><g class="label" style="" transform="translate(0,84)"><foreignObject width="198.28125" height="24"><div xmlns="http://www.w3.org/1999/xhtml" style="display: table-cell; white-space: nowrap; line-height: 1.5; max-width: 252px; text-align: center;"><span class="nodeLabel markdown-node-label" style=""><p>+trialsTable : DataFrame</p></span></div></foreignObject></g></g><g class="methods-group text" transform="translate(-137.234375, 96)"><g class="label" style="" transform="translate(0,-12)"><foreignObject width="126.625" height="24"><div xmlns="http://www.w3.org/1999/xhtml" style="display: table-cell; white-space: nowrap; line-height: 1.5; max-width: 180px; text-align: center;"><span class="nodeLabel markdown-node-label" style=""><p>+toJSON() : dict</p></span></div></foreignObject></g></g><g class="divider" style=""><path d="M-149.234375 -72 C-63.9915689076052 -72, 21.251237184789602 -72, 149.234375 -72 M-149.234375 -72 C-42.35010851517994 -72, 64.53415796964012 -72, 149.234375 -72" stroke="#9370DB" stroke-width="1.3" fill="none" stroke-dasharray="0 0" style=""/></g><g class="divider" style=""><path d="M-149.234375 72 C-65.07412062642537 72, 19.086133747149262 72, 149.234375 72 M-149.234375 72 C-38.722095200733676 72, 71.79018459853265 72, 149.234375 72" stroke="#9370DB" stroke-width="1.3" fill="none" stroke-dasharray="0 0" style=""/></g></g><g class="node default" id="classId-EntityType-2" transform="translate(182.484375, 612)"><g class="basic label-container"><path d="M-174.484375 -132 L174.484375 -132 L174.484375 132 L-174.484375 132" stroke="none" stroke-width="0" fill="#ECECFF" style=""/><path d="M-174.484375 -132 C-59.24825364017629 -132, 55.987867719647426 -132, 174.484375 -132 M-174.484375 -132 C-66.46795982881999 -132, 41.54845534236003 -132, 174.484375 -132 M174.484375 -132 C174.484375 -43.2752756070479, 174.484375 45.449448785904195, 174.484375 132 M174.484375 -132 C174.484375 -45.41809121342442, 174.484375 41.163817573151164, 174.484375 132 M174.484375 132 C42.305679412612136 132, -89.87301617477573 132, -174.484375 132 M174.484375 132 C72.3546060873133 132, -29.7751628253734 132, -174.484375 132 M-174.484375 132 C-174.484375 54.710620826354614, -174.484375 -22.578758347290773, -174.484375 -132 M-174.484375 132 C-174.484375 48.036781142661994, -174.484375 -35.92643771467601, -174.484375 -132" stroke="#9370DB" stroke-width="1.3" fill="none" stroke-dasharray="0 0" style=""/></g><g class="annotation-group text" transform="translate(0, -108)"/><g class="label-group text" transform="translate(-47.640625, -108)"><g class="label" style="font-weight: bolder" transform="translate(0,-12)"><foreignObject width="95.28125" height="24"><div xmlns="http://www.w3.org/1999/xhtml" style="display: table-cell; white-space: nowrap; line-height: 1.5; max-width: 132px; text-align: center;"><span class="nodeLabel markdown-node-label" style=""><p>EntityType</p></span></div></foreignObject></g></g><g class="members-group text" transform="translate(-162.484375, -60)"><g class="label" style="" transform="translate(0,-12)"><foreignObject width="95.53125" height="24"><div xmlns="http://www.w3.org/1999/xhtml" style="display: table-cell; white-space: nowrap; line-height: 1.5; max-width: 150px; text-align: center;"><span class="nodeLabel markdown-node-label" style=""><p>+name : str</p></span></div></foreignObject></g><g class="label" style="" transform="translate(0,12)"><foreignObject width="213.3125" height="24"><div xmlns="http://www.w3.org/1999/xhtml" style="display: table-cell; white-space: nowrap; line-height: 1.5; max-width: 267px; text-align: center;"><span class="nodeLabel markdown-node-label" style=""><p>+experiment : Experiment</p></span></div></foreignObject></g><g class="label" style="" transform="translate(0,36)"><foreignObject width="134.125" height="24"><div xmlns="http://www.w3.org/1999/xhtml" style="display: table-cell; white-space: nowrap; line-height: 1.5; max-width: 187px; text-align: center;"><span class="nodeLabel markdown-node-label" style=""><p>+properties : list</p></span></div></foreignObject></g><g class="label" style="" transform="translate(0,60)"><foreignObject width="240.046875" height="24"><div xmlns="http://www.w3.org/1999/xhtml" style="display: table-cell; white-space: nowrap; line-height: 1.5; max-width: 295px; text-align: center;"><span class="nodeLabel markdown-node-label" style=""><p>+propertiesTable : DataFrame</p></span></div></foreignObject></g><g class="label" style="" transform="translate(0,84)"><foreignObject width="218" height="24"><div xmlns="http://www.w3.org/1999/xhtml" style="display: table-cell; white-space: nowrap; line-height: 1.5; max-width: 271px; text-align: center;"><span class="nodeLabel markdown-node-label" style=""><p>+entitiesTable : DataFrame</p></span></div></foreignObject></g><g class="label" style="" transform="translate(0,108)"><foreignObject width="277.328125" height="24"><div xmlns="http://www.w3.org/1999/xhtml" style="display: table-cell; white-space: nowrap; line-height: 1.5; max-width: 331px; text-align: center;"><span class="nodeLabel markdown-node-label" style=""><p>+entitiesAllProperties : DataFrame</p></span></div></foreignObject></g></g><g class="methods-group text" transform="translate(-162.484375, 108)"><g class="label" style="" transform="translate(0,-12)"><foreignObject width="126.625" height="24"><div xmlns="http://www.w3.org/1999/xhtml" style="display: table-cell; white-space: nowrap; line-height: 1.5; max-width: 180px; text-align: center;"><span class="nodeLabel markdown-node-label" style=""><p>+toJSON() : dict</p></span></div></foreignObject></g></g><g class="divider" style=""><path d="M-174.484375 -84 C-42.82113064941919 -84, 88.84211370116162 -84, 174.484375 -84 M-174.484375 -84 C-47.6775511019154 -84, 79.1292727961692 -84, 174.484375 -84" stroke="#9370DB" stroke-width="1.3" fill="none" stroke-dasharray="0 0" style=""/></g><g class="divider" style=""><path d="M-174.484375 84 C-94.86250841396209 84, -15.240641827924179 84, 174.484375 84 M-174.484375 84 C-80.51181622361777 84, 13.460742552764458 84, 174.484375 84" stroke="#9370DB" stroke-width="1.3" fill="none" stroke-dasharray="0 0" style=""/></g></g><g class="node default" id="classId-Trial-3" transform="translate(548.6953125, 612)"><g class="basic label-container"><path d="M-141.7265625 -120 L141.7265625 -120 L141.7265625 120 L-141.7265625 120" stroke="none" stroke-width="0" fill="#ECECFF" style=""/><path d="M-141.7265625 -120 C-48.9660468350971 -120, 43.794468829805794 -120, 141.7265625 -120 M-141.7265625 -120 C-66.18282436467643 -120, 9.36091377064713 -120, 141.7265625 -120 M141.7265625 -120 C141.7265625 -36.86362197470079, 141.7265625 46.27275605059842, 141.7265625 120 M141.7265625 -120 C141.7265625 -25.759117561509413, 141.7265625 68.48176487698117, 141.7265625 120 M141.7265625 120 C42.97636045257639 120, -55.77384159484723 120, -141.7265625 120 M141.7265625 120 C53.21780450236331 120, -35.290953495273385 120, -141.7265625 120 M-141.7265625 120 C-141.7265625 69.37185115305257, -141.7265625 18.74370230610515, -141.7265625 -120 M-141.7265625 120 C-141.7265625 25.092025025686993, -141.7265625 -69.81594994862601, -141.7265625 -120" stroke="#9370DB" stroke-width="1.3" fill="none" stroke-dasharray="0 0" style=""/></g><g class="annotation-group text" transform="translate(0, -96)"/><g class="label-group text" transform="translate(-19.40625, -96)"><g class="label" style="font-weight: bolder" transform="translate(0,-12)"><foreignObject width="38.8125" height="24"><div xmlns="http://www.w3.org/1999/xhtml" style="display: table-cell; white-space: nowrap; line-height: 1.5; max-width: 84px; text-align: center;"><span class="nodeLabel markdown-node-label" style=""><p>Trial</p></span></div></foreignObject></g></g><g class="members-group text" transform="translate(-129.7265625, -48)"><g class="label" style="" transform="translate(0,-12)"><foreignObject width="95.53125" height="24"><div xmlns="http://www.w3.org/1999/xhtml" style="display: table-cell; white-space: nowrap; line-height: 1.5; max-width: 150px; text-align: center;"><span class="nodeLabel markdown-node-label" style=""><p>+name : str</p></span></div></foreignObject></g><g class="label" style="" transform="translate(0,12)"><foreignObject width="145.765625" height="24"><div xmlns="http://www.w3.org/1999/xhtml" style="display: table-cell; white-space: nowrap; line-height: 1.5; max-width: 199px; text-align: center;"><span class="nodeLabel markdown-node-label" style=""><p>+trialSet : TrialSet</p></span></div></foreignObject></g><g class="label" style="" transform="translate(0,36)"><foreignObject width="140.296875" height="24"><div xmlns="http://www.w3.org/1999/xhtml" style="display: table-cell; white-space: nowrap; line-height: 1.5; max-width: 194px; text-align: center;"><span class="nodeLabel markdown-node-label" style=""><p>+properties : dict</p></span></div></foreignObject></g><g class="label" style="" transform="translate(0,60)"><foreignObject width="240.046875" height="24"><div xmlns="http://www.w3.org/1999/xhtml" style="display: table-cell; white-space: nowrap; line-height: 1.5; max-width: 295px; text-align: center;"><span class="nodeLabel markdown-node-label" style=""><p>+propertiesTable : DataFrame</p></span></div></foreignObject></g><g class="label" style="" transform="translate(0,84)"><foreignObject width="118.25" height="24"><div xmlns="http://www.w3.org/1999/xhtml" style="display: table-cell; white-space: nowrap; line-height: 1.5; max-width: 170px; text-align: center;"><span class="nodeLabel markdown-node-label" style=""><p>+entities : dict</p></span></div></foreignObject></g><g class="label" style="" transform="translate(0,108)"><foreignObject width="218" height="24"><div xmlns="http://www.w3.org/1999/xhtml" style="display: table-cell; white-space: nowrap; line-height: 1.5; max-width: 271px; text-align: center;"><span class="nodeLabel markdown-node-label" style=""><p>+entitiesTable : DataFrame</p></span></div></foreignObject></g></g><g class="methods-group text" transform="translate(-129.7265625, 120)"/><g class="divider" style=""><path d="M-141.7265625 -72 C-37.33850610064427 -72, 67.04955029871147 -72, 141.7265625 -72 M-141.7265625 -72 C-51.141657513183134 -72, 39.44324747363373 -72, 141.7265625 -72" stroke="#9370DB" stroke-width="1.3" fill="none" stroke-dasharray="0 0" style=""/></g><g class="divider" style=""><path d="M-141.7265625 96 C-46.578775633922575 96, 48.56901123215485 96, 141.7265625 96 M-141.7265625 96 C-53.802648308485374 96, 34.12126588302925 96, 141.7265625 96" stroke="#9370DB" stroke-width="1.3" fill="none" stroke-dasharray="0 0" style=""/></g></g><g class="node default" id="classId-Entity-4" transform="translate(365.58984375, 938)"><g class="basic label-container"><path d="M-197.4375 -120 L197.4375 -120 L197.4375 120 L-197.4375 120" stroke="none" stroke-width="0" fill="#ECECFF" style=""/><path d="M-197.4375 -120 C-110.87964694253448 -120, -24.321793885068956 -120, 197.4375 -120 M-197.4375 -120 C-104.46643445587877 -120, -11.495368911757538 -120, 197.4375 -120 M197.4375 -120 C197.4375 -25.710972462070643, 197.4375 68.57805507585871, 197.4375 120 M197.4375 -120 C197.4375 -35.00321732372787, 197.4375 49.993565352544266, 197.4375 120 M197.4375 120 C43.64934661472128 120, -110.13880677055744 120, -197.4375 120 M197.4375 120 C87.16506161794773 120, -23.107376764104544 120, -197.4375 120 M-197.4375 120 C-197.4375 60.34660902188792, -197.4375 0.6932180437758433, -197.4375 -120 M-197.4375 120 C-197.4375 56.28683353921916, -197.4375 -7.426332921561681, -197.4375 -120" stroke="#9370DB" stroke-width="1.3" fill="none" stroke-dasharray="0 0" style=""/></g><g class="annotation-group text" transform="translate(0, -96)"/><g class="label-group text" transform="translate(-26.765625, -96)"><g class="label" style="font-weight: bolder" transform="translate(0,-12)"><foreignObject width="53.53125" height="24"><div xmlns="http://www.w3.org/1999/xhtml" style="display: table-cell; white-space: nowrap; line-height: 1.5; max-width: 95px; text-align: center;"><span class="nodeLabel markdown-node-label" style=""><p>Entity</p></span></div></foreignObject></g></g><g class="members-group text" transform="translate(-185.4375, -48)"><g class="label" style="" transform="translate(0,-12)"><foreignObject width="95.53125" height="24"><div xmlns="http://www.w3.org/1999/xhtml" style="display: table-cell; white-space: nowrap; line-height: 1.5; max-width: 150px; text-align: center;"><span class="nodeLabel markdown-node-label" style=""><p>+name : str</p></span></div></foreignObject></g><g class="label" style="" transform="translate(0,12)"><foreignObject width="133.359375" height="24"><div xmlns="http://www.w3.org/1999/xhtml" style="display: table-cell; white-space: nowrap; line-height: 1.5; max-width: 186px; text-align: center;"><span class="nodeLabel markdown-node-label" style=""><p>+entityType : str</p></span></div></foreignObject></g><g class="label" style="" transform="translate(0,36)"><foreignObject width="140.296875" height="24"><div xmlns="http://www.w3.org/1999/xhtml" style="display: table-cell; white-space: nowrap; line-height: 1.5; max-width: 194px; text-align: center;"><span class="nodeLabel markdown-node-label" style=""><p>+properties : dict</p></span></div></foreignObject></g><g class="label" style="" transform="translate(0,60)"><foreignObject width="240.046875" height="24"><div xmlns="http://www.w3.org/1999/xhtml" style="display: table-cell; white-space: nowrap; line-height: 1.5; max-width: 295px; text-align: center;"><span class="nodeLabel markdown-node-label" style=""><p>+propertiesTable : DataFrame</p></span></div></foreignObject></g><g class="label" style="" transform="translate(0,84)"><foreignObject width="257.953125" height="24"><div xmlns="http://www.w3.org/1999/xhtml" style="display: table-cell; white-space: nowrap; line-height: 1.5; max-width: 313px; text-align: center;"><span class="nodeLabel markdown-node-label" style=""><p>+allPropertiesTable : DataFrame</p></span></div></foreignObject></g></g><g class="methods-group text" transform="translate(-185.4375, 96)"><g class="label" style="" transform="translate(0,-12)"><foreignObject width="344.109375" height="24"><div xmlns="http://www.w3.org/1999/xhtml" style="display: table-cell; white-space: nowrap; line-height: 1.5; max-width: 398px; text-align: center;"><span class="nodeLabel markdown-node-label" style=""><p>+trialProperties(setName, trialName) : dict</p></span></div></foreignObject></g></g><g class="divider" style=""><path d="M-197.4375 -72 C-66.65481222701732 -72, 64.12787554596537 -72, 197.4375 -72 M-197.4375 -72 C-51.5077327093382 -72, 94.4220345813236 -72, 197.4375 -72" stroke="#9370DB" stroke-width="1.3" fill="none" stroke-dasharray="0 0" style=""/></g><g class="divider" style=""><path d="M-197.4375 72 C-48.283832414032645 72, 100.86983517193471 72, 197.4375 72 M-197.4375 72 C-44.99767678106872 72, 107.44214643786256 72, 197.4375 72" stroke="#9370DB" stroke-width="1.3" fill="none" stroke-dasharray="0 0" style=""/></g></g></g></g></g></svg>